<svg width="141" height="39" viewBox="0 0 141 39" fill="none" xmlns="http://www.w3.org/2000/svg">
<path d="M0 5C0 2.23858 2.23858 0 5 0H136C138.761 0 141 2.23858 141 5V39H0V5Z" fill="#EB7F58"/>
<path d="M14.362 24H16.387V20.235H20.062V18.405H16.387V15.93H20.872V14.1H14.362V24ZM22.4043 24H24.4293V12.75H22.4043V24ZM26.1626 20.28C26.1176 22.395 27.9476 24.21 30.1226 24.165C32.2976 24.21 34.1726 22.395 34.1276 20.28C34.1726 18.165 32.3126 16.38 30.1376 16.41C27.9626 16.365 26.1176 18.165 26.1626 20.28ZM32.0576 20.295C32.0576 21.45 31.2326 22.305 30.1376 22.305C29.0126 22.305 28.2176 21.45 28.2176 20.295C28.2176 19.11 29.0126 18.255 30.1376 18.255C31.2326 18.255 32.0576 19.14 32.0576 20.295ZM42.0836 19.59C42.0836 17.535 40.8386 16.41 38.9036 16.41C37.5986 16.41 36.5186 16.92 35.6636 17.94L36.7136 19.185C37.3736 18.48 37.9136 18.165 38.6786 18.165C39.5786 18.165 40.0586 18.645 40.0586 19.47V19.8H38.1986C36.4736 19.8 35.3936 20.625 35.3936 21.96C35.3936 23.265 36.3836 24.18 37.9586 24.18C38.9036 24.18 39.6836 23.835 40.2236 23.28V24H42.0836V19.59ZM40.0586 21.225C40.0586 22.08 39.3836 22.695 38.4986 22.695C37.8536 22.695 37.4336 22.38 37.4336 21.885C37.4336 21.39 37.8086 21.135 38.4686 21.135H40.0586V21.225ZM48.9524 22.305C48.4274 22.35 48.1124 22.365 47.9924 22.365C47.0324 22.365 46.6124 22.05 46.6124 21.21V18.285H48.7124V16.575H46.6124V14.7H44.5874V16.575H43.4174V18.285H44.5874V21.39C44.5874 23.25 45.6824 24.18 47.5574 24.18C48.0074 24.18 48.4724 24.12 48.9524 24V22.305ZM50.5727 24H52.5977V16.575H50.5727V24ZM50.2877 13.875C50.2877 14.58 50.8577 15.12 51.5777 15.12C52.2977 15.12 52.8827 14.58 52.8827 13.875C52.8827 13.155 52.2977 12.615 51.5777 12.615C50.8577 12.615 50.2877 13.155 50.2877 13.875ZM61.576 19.395C61.576 17.595 60.511 16.41 58.786 16.41C57.901 16.41 57.136 16.725 56.611 17.25V16.575H54.751V24H56.776V19.665C56.776 18.81 57.361 18.225 58.186 18.225C59.011 18.225 59.566 18.81 59.566 19.665V24H61.576V19.395ZM69.2704 16.575V17.505C68.7454 16.8 67.9054 16.41 66.8404 16.41C64.8154 16.41 63.2854 17.88 63.2854 20.085C63.2854 22.26 64.7854 23.775 66.8404 23.775C67.7854 23.775 68.5654 23.475 69.1054 22.89V23.295C69.1054 24.45 68.3254 25.05 67.1254 25.05C66.2254 25.05 65.5354 24.705 64.7104 24.09L63.6454 25.5C64.6804 26.415 65.8954 26.88 67.2904 26.88C69.6154 26.88 71.1304 25.59 71.1304 23.175V16.575H69.2704ZM69.1354 20.055C69.1354 21.33 68.2804 22.065 67.2604 22.065C66.1804 22.065 65.3404 21.27 65.3404 20.07C65.3404 18.87 66.1654 18.135 67.2604 18.135C68.2954 18.135 69.1354 18.78 69.1354 20.055ZM77.7774 24H79.8024V20.235H83.4774V18.405H79.8024V15.93H84.2874V14.1H77.7774V24ZM90.16 16.575C89.965 16.515 89.755 16.485 89.5 16.485C88.675 16.485 87.955 16.845 87.46 17.46V16.575H85.6V24H87.625V20.295C87.625 19.02 88.405 18.36 89.62 18.36H90.16V16.575ZM97.644 19.59C97.644 17.535 96.399 16.41 94.464 16.41C93.159 16.41 92.079 16.92 91.224 17.94L92.274 19.185C92.934 18.48 93.474 18.165 94.239 18.165C95.139 18.165 95.619 18.645 95.619 19.47V19.8H93.759C92.034 19.8 90.954 20.625 90.954 21.96C90.954 23.265 91.944 24.18 93.519 24.18C94.464 24.18 95.244 23.835 95.784 23.28V24H97.644V19.59ZM95.619 21.225C95.619 22.08 94.944 22.695 94.059 22.695C93.414 22.695 92.994 22.38 92.994 21.885C92.994 21.39 93.369 21.135 94.029 21.135H95.619V21.225ZM111.188 19.395C111.188 17.595 110.123 16.41 108.383 16.41C107.363 16.41 106.493 16.815 105.908 17.475C105.413 16.77 104.678 16.41 103.703 16.41C102.848 16.41 102.098 16.71 101.603 17.235V16.575H99.7428V24H101.768V19.68C101.768 18.795 102.308 18.24 103.133 18.24C103.928 18.24 104.453 18.795 104.453 19.68V24H106.478V19.635C106.478 18.81 107.048 18.24 107.843 18.24C108.638 18.24 109.163 18.795 109.163 19.68V24H111.188V19.395ZM120.092 20.97C120.182 20.595 120.227 20.22 120.227 19.86C120.227 17.925 118.787 16.41 116.732 16.41C114.587 16.365 112.802 18.15 112.847 20.295C112.802 22.44 114.617 24.225 116.912 24.18C118.007 24.18 118.997 23.805 119.882 23.07L119.042 21.69C118.397 22.185 117.707 22.44 116.972 22.44C115.892 22.44 115.127 21.915 114.887 20.97H120.092ZM114.887 19.545C115.112 18.63 115.802 18.045 116.657 18.045C117.542 18.045 118.247 18.63 118.262 19.545H114.887ZM121.282 22.74C121.957 23.64 123.052 24.18 124.357 24.18C125.197 24.18 125.887 23.97 126.427 23.55C126.982 23.13 127.252 22.545 127.252 21.81C127.252 20.715 126.607 20.13 125.167 19.545L124.447 19.245C123.862 19.005 123.667 18.87 123.667 18.585C123.667 18.24 123.967 18.06 124.462 18.06C125.077 18.06 125.632 18.3 126.127 18.765L127.147 17.52C126.472 16.785 125.587 16.41 124.477 16.41C122.857 16.41 121.747 17.235 121.747 18.63C121.747 19.725 122.407 20.34 123.772 20.895L124.567 21.225C125.122 21.465 125.332 21.585 125.332 21.9C125.332 22.305 124.927 22.515 124.387 22.515C123.652 22.515 122.947 22.185 122.302 21.51L121.282 22.74Z" fill="white"/>
</svg>
