<svg width="75" height="39" viewBox="0 0 75 39" fill="none" xmlns="http://www.w3.org/2000/svg">
<path d="M21.0411 24H22.7511L18.3861 13.935H17.8461L13.4811 24H15.1761L15.8811 22.35H20.3361L21.0411 24ZM19.7661 20.985H16.4511L18.1161 16.89L19.7661 20.985ZM23.6587 20.31C23.6587 22.455 25.3837 24.165 27.5587 24.165C28.8937 24.165 30.0037 23.52 30.6637 22.455L29.5537 21.6C29.0137 22.335 28.3537 22.71 27.5737 22.71C26.2537 22.71 25.2637 21.66 25.2637 20.31C25.2637 18.975 26.2537 17.925 27.5737 17.925C28.3687 17.925 29.0287 18.3 29.5537 19.05L30.6637 18.18C30.0187 17.115 28.9237 16.47 27.5587 16.47C25.4437 16.44 23.6137 18.195 23.6587 20.31ZM36.7651 16.635C36.5851 16.59 36.3901 16.56 36.1651 16.56C35.3251 16.56 34.5451 16.935 34.0201 17.595V16.635H32.5501V24H34.1251V20.07C34.1251 18.765 35.0401 18.03 36.2851 18.03H36.7651V16.635ZM43.4551 16.635L41.2801 21.99L39.1651 16.635H37.4701L40.4101 23.67L40.1101 24.36C39.7501 25.185 39.2401 25.44 38.5051 25.44C38.3851 25.44 38.1001 25.425 37.6351 25.38V26.715C38.0401 26.82 38.4451 26.865 38.8501 26.865C40.1101 26.865 40.9351 26.235 41.5501 24.84L45.1351 16.635H43.4551ZM46.7075 24H48.2825V12.75H46.7075V24ZM50.71 24H52.285V16.635H50.71V24ZM50.425 13.89C50.425 14.475 50.905 14.925 51.505 14.925C52.09 14.925 52.57 14.475 52.57 13.89C52.57 13.305 52.09 12.84 51.505 12.84C50.905 12.84 50.425 13.305 50.425 13.89ZM54.2476 20.31C54.2476 22.455 55.9726 24.165 58.1476 24.165C59.4826 24.165 60.5926 23.52 61.2526 22.455L60.1426 21.6C59.6026 22.335 58.9426 22.71 58.1626 22.71C56.8426 22.71 55.8526 21.66 55.8526 20.31C55.8526 18.975 56.8426 17.925 58.1626 17.925C58.9576 17.925 59.6176 18.3 60.1426 19.05L61.2526 18.18C60.6076 17.115 59.5126 16.47 58.1476 16.47C56.0326 16.44 54.2026 18.195 54.2476 20.31Z" fill="#7F91A8"/>
</svg>
