<svg width="142" height="39" viewBox="0 0 142 39" fill="none" xmlns="http://www.w3.org/2000/svg">
<path d="M26.6685 14.1L24.1935 20.79L21.3435 13.935H20.7885L17.9535 20.79L15.4785 14.1H13.7235L17.5785 24.165H18.1185L21.0735 17.145L24.0285 24.165H24.5535L28.4085 14.1H26.6685ZM28.862 20.31C28.817 22.395 30.632 24.21 32.747 24.165C34.892 24.21 36.707 22.395 36.662 20.31C36.707 18.225 34.892 16.425 32.747 16.47C30.632 16.44 28.817 18.195 28.862 20.31ZM35.042 20.325C35.042 21.66 34.052 22.71 32.747 22.71C31.457 22.71 30.467 21.69 30.467 20.325C30.467 18.96 31.457 17.91 32.762 17.91C34.037 17.91 35.042 18.96 35.042 20.325ZM38.1526 20.31C38.1076 22.395 39.9226 24.21 42.0376 24.165C44.1826 24.21 45.9976 22.395 45.9526 20.31C45.9976 18.225 44.1826 16.425 42.0376 16.47C39.9226 16.44 38.1076 18.195 38.1526 20.31ZM44.3326 20.325C44.3326 21.66 43.3426 22.71 42.0376 22.71C40.7476 22.71 39.7576 21.69 39.7576 20.325C39.7576 18.96 40.7476 17.91 42.0526 17.91C43.3276 17.91 44.3326 18.96 44.3326 20.325ZM53.5033 12.75V17.535C52.9483 16.86 52.0633 16.47 51.0433 16.47C49.0033 16.425 47.3983 18.18 47.4433 20.325C47.4433 22.5 48.9733 24.165 51.0433 24.165C52.1383 24.165 53.0833 23.715 53.6233 22.95V24H55.0933V12.75H53.5033ZM53.5333 20.325C53.5333 21.93 52.4683 22.725 51.3133 22.725C50.0083 22.725 49.0483 21.72 49.0483 20.31C49.0483 18.9 50.0533 17.91 51.3133 17.91C52.4533 17.91 53.5333 18.735 53.5333 20.325ZM64.1511 20.835C64.2261 20.49 64.2711 20.16 64.2711 19.845C64.2711 17.925 62.8161 16.47 60.8661 16.47C58.7811 16.425 57.0111 18.21 57.0561 20.325C57.0561 22.5 58.7661 24.165 61.0161 24.165C62.1411 24.165 63.1161 23.775 63.9561 22.98L63.2061 21.9C62.5461 22.485 61.8261 22.77 61.0611 22.77C59.8011 22.77 58.8561 22.035 58.6611 20.835H64.1511ZM58.6911 19.605C58.9311 18.51 59.7711 17.805 60.8061 17.805C61.8411 17.805 62.6811 18.48 62.6961 19.605H58.6911ZM72.6608 19.395C72.6608 17.64 71.6258 16.47 69.9008 16.47C68.9858 16.47 68.2508 16.77 67.6958 17.355V16.635H66.2258V24H67.8008V19.605C67.8008 18.6 68.5058 17.895 69.4808 17.895C70.4408 17.895 71.0858 18.585 71.0858 19.605V24H72.6608V19.395ZM79.4629 24H81.0529V19.92H84.9829V18.48H81.0529V15.525H85.8229V14.1H79.4629V24ZM91.4279 16.635C91.2479 16.59 91.0529 16.56 90.8279 16.56C89.9879 16.56 89.2079 16.935 88.6829 17.595V16.635H87.2129V24H88.7879V20.07C88.7879 18.765 89.7029 18.03 90.9479 18.03H91.4279V16.635ZM98.6915 19.545C98.6915 17.565 97.4915 16.47 95.6765 16.47C94.4015 16.47 93.3065 16.98 92.5715 18.045L93.4865 18.975C94.1015 18.24 94.7015 17.88 95.5265 17.88C96.5315 17.88 97.1015 18.435 97.1015 19.455V19.935H95.0165C93.3515 19.935 92.3015 20.76 92.3015 22.035C92.3015 23.31 93.3215 24.165 94.8665 24.165C95.8715 24.165 96.6815 23.82 97.2215 23.175V24H98.6915V19.545ZM97.1015 21.21C97.1015 22.215 96.2615 22.95 95.1965 22.95C94.4315 22.95 93.9065 22.59 93.9065 21.975C93.9065 21.375 94.3715 21.075 95.2115 21.075H97.1015V21.21ZM112.088 19.395C112.088 17.64 111.053 16.47 109.358 16.47C108.323 16.47 107.408 16.92 106.868 17.625C106.433 16.905 105.653 16.47 104.633 16.47C103.748 16.47 103.028 16.785 102.503 17.325V16.635H101.033V24H102.608V19.62C102.608 18.6 103.268 17.91 104.228 17.91C105.173 17.91 105.773 18.6 105.773 19.62V24H107.348V19.545C107.348 18.6 108.008 17.91 108.968 17.91C109.913 17.91 110.498 18.585 110.498 19.62V24H112.088V19.395ZM121.056 20.835C121.131 20.49 121.176 20.16 121.176 19.845C121.176 17.925 119.721 16.47 117.771 16.47C115.686 16.425 113.916 18.21 113.961 20.325C113.961 22.5 115.671 24.165 117.921 24.165C119.046 24.165 120.021 23.775 120.861 22.98L120.111 21.9C119.451 22.485 118.731 22.77 117.966 22.77C116.706 22.77 115.761 22.035 115.566 20.835H121.056ZM115.596 19.605C115.836 18.51 116.676 17.805 117.711 17.805C118.746 17.805 119.586 18.48 119.601 19.605H115.596ZM122.44 22.74C123.1 23.595 124.15 24.165 125.41 24.165C126.19 24.165 126.835 23.97 127.36 23.58C127.885 23.175 128.14 22.62 128.14 21.915C128.14 20.88 127.525 20.28 126.13 19.695L125.425 19.41C124.705 19.11 124.45 18.915 124.45 18.54C124.45 18.075 124.84 17.835 125.455 17.835C126.1 17.835 126.715 18.105 127.18 18.585L128.035 17.61C127.39 16.845 126.55 16.47 125.485 16.47C123.985 16.47 122.89 17.28 122.89 18.6C122.89 19.635 123.505 20.205 124.81 20.745L125.56 21.06C126.28 21.36 126.595 21.54 126.595 21.975C126.595 22.515 126.085 22.8 125.41 22.8C124.63 22.8 123.985 22.425 123.34 21.75L122.44 22.74Z" fill="#7F91A8"/>
</svg>
