<svg width="77" height="39" viewBox="0 0 77 39" fill="none" xmlns="http://www.w3.org/2000/svg">
<path d="M13.8384 19.05C13.7784 21.885 16.2234 24.21 19.0434 24.165C20.8884 24.165 22.4484 23.28 23.2884 21.885L22.0884 21C21.3834 22.095 20.3634 22.71 19.0584 22.71C17.0334 22.71 15.4884 21.15 15.4884 19.05C15.4884 16.95 17.0334 15.39 19.0584 15.39C20.3634 15.39 21.3834 16.005 22.0884 17.1L23.2884 16.215C22.4334 14.82 20.8584 13.935 19.0434 13.935C16.2234 13.89 13.7784 16.215 13.8384 19.05ZM31.0121 19.545C31.0121 17.565 29.8121 16.47 27.9971 16.47C26.7221 16.47 25.6271 16.98 24.8921 18.045L25.8071 18.975C26.4221 18.24 27.0221 17.88 27.8471 17.88C28.8521 17.88 29.4221 18.435 29.4221 19.455V19.935H27.3371C25.6721 19.935 24.6221 20.76 24.6221 22.035C24.6221 23.31 25.6421 24.165 27.1871 24.165C28.1921 24.165 29.0021 23.82 29.5421 23.175V24H31.0121V19.545ZM29.4221 21.21C29.4221 22.215 28.5821 22.95 27.5171 22.95C26.7521 22.95 26.2271 22.59 26.2271 21.975C26.2271 21.375 26.6921 21.075 27.5321 21.075H29.4221V21.21ZM39.7891 19.395C39.7891 17.64 38.7541 16.47 37.0291 16.47C36.1141 16.47 35.3791 16.77 34.8241 17.355V16.635H33.3541V24H34.9291V19.605C34.9291 18.6 35.6341 17.895 36.6091 17.895C37.5691 17.895 38.2141 18.585 38.2141 19.605V24H39.7891V19.395ZM46.969 16.635L44.824 21.51L42.664 16.635H40.984L44.554 24.165H45.094L48.649 16.635H46.969ZM55.7785 19.545C55.7785 17.565 54.5785 16.47 52.7635 16.47C51.4885 16.47 50.3935 16.98 49.6585 18.045L50.5735 18.975C51.1885 18.24 51.7885 17.88 52.6135 17.88C53.6185 17.88 54.1885 18.435 54.1885 19.455V19.935H52.1035C50.4385 19.935 49.3885 20.76 49.3885 22.035C49.3885 23.31 50.4085 24.165 51.9535 24.165C52.9585 24.165 53.7685 23.82 54.3085 23.175V24H55.7785V19.545ZM54.1885 21.21C54.1885 22.215 53.3485 22.95 52.2835 22.95C51.5185 22.95 50.9935 22.59 50.9935 21.975C50.9935 21.375 51.4585 21.075 52.2985 21.075H54.1885V21.21ZM57.4305 22.74C58.0905 23.595 59.1405 24.165 60.4005 24.165C61.1805 24.165 61.8255 23.97 62.3505 23.58C62.8755 23.175 63.1305 22.62 63.1305 21.915C63.1305 20.88 62.5155 20.28 61.1205 19.695L60.4155 19.41C59.6955 19.11 59.4405 18.915 59.4405 18.54C59.4405 18.075 59.8305 17.835 60.4455 17.835C61.0905 17.835 61.7055 18.105 62.1705 18.585L63.0255 17.61C62.3805 16.845 61.5405 16.47 60.4755 16.47C58.9755 16.47 57.8805 17.28 57.8805 18.6C57.8805 19.635 58.4955 20.205 59.8005 20.745L60.5505 21.06C61.2705 21.36 61.5855 21.54 61.5855 21.975C61.5855 22.515 61.0755 22.8 60.4005 22.8C59.6205 22.8 58.9755 22.425 58.3305 21.75L57.4305 22.74Z" fill="#7F91A8"/>
</svg>
