<svg width="46" height="47" viewBox="0 0 46 47" fill="none" xmlns="http://www.w3.org/2000/svg">
<path d="M24.124 6.90771H26.8779V25.4048H24.124V6.90771Z" fill="#00D880"/>
<path d="M25.501 6.90771H26.8779V25.4048H25.501V6.90771Z" fill="#26A68F"/>
<path d="M30.8755 3.06602C30.8755 4.75692 29.4389 6.7434 25.5017 9.20815C21.5646 6.7434 20.1279 4.75692 20.1279 3.06602C20.1279 1.37328 21.5012 0 23.1949 0C24.1147 0 24.9399 0.405742 25.5017 1.0474C26.0635 0.405742 26.8888 0 27.8086 0C29.5022 0 30.8755 1.37328 30.8755 3.06602Z" fill="#FF6398"/>
<path d="M30.8748 3.06602C30.8748 4.75692 29.4381 6.7434 25.501 9.20815V1.0474C26.0628 0.405742 26.888 0 27.8078 0C29.5015 0 30.8748 1.37328 30.8748 3.06602Z" fill="#FF2D75"/>
<path d="M29.1278 12.9202C27.1251 12.9202 25.5016 14.5437 25.5016 16.5463C25.5016 14.5437 23.8782 12.9202 21.8754 12.9202H18.0542V15.1691C18.0542 17.1717 19.6776 18.7952 21.6804 18.7952H25.5016H29.3228C31.3255 18.7952 32.949 17.1717 32.949 15.1691V12.9202H29.1278Z" fill="#BDE760"/>
<path d="M29.3222 18.7952H25.501V16.5463C25.501 14.5437 27.1244 12.9202 29.1271 12.9202H32.9484V15.169C32.9484 17.1716 31.3248 18.7952 29.3222 18.7952Z" fill="#00D880"/>
<path d="M36.1325 33.7079H14.8696C14.8696 28.0743 19.6293 23.5074 25.5015 23.5074C31.3729 23.5074 36.1325 28.0743 36.1325 33.7079Z" fill="#4D4389"/>
<path d="M36.132 33.7079H25.501V23.5074C31.3723 23.5074 36.132 28.0743 36.132 33.7079Z" fill="#38336B"/>
<path d="M45.5993 28.535C41.6493 32.4868 31.5967 42.5432 31.5967 42.5432H13.7706L9.31387 46.9999L0.400391 38.0864L8.54737 29.9395C11.4325 27.0543 16.1087 27.0543 18.9939 29.9385H25.5013C27.2409 29.9385 28.6518 31.3495 28.6518 33.089V33.0918L30.216 34.1474L31.604 33.0918H32.1355L38.9184 26.308C40.1485 25.0788 42.1423 25.0788 43.3724 26.308C44.6024 27.5371 45.5993 28.535 45.5993 28.535Z" fill="#FFE0E0"/>
<path d="M45.599 28.535C41.649 32.4868 31.5963 42.5432 31.5963 42.5432H25.501V29.9385C27.2405 29.9385 28.6514 31.3495 28.6514 33.089V33.0918L30.2157 34.1474L31.6036 33.0918H32.1351L38.918 26.308C40.1481 25.0788 42.1419 25.0788 43.372 26.308C44.6021 27.5371 45.599 28.535 45.599 28.535Z" fill="#FFCCCB"/>
<path d="M31.6042 33.0918V39.1935H16.4302V36.2413H28.652V33.0918H31.6042Z" fill="#FFCCCB"/>
<path d="M31.6036 33.0918V39.1935H25.501V36.2413H28.6514V33.0918H31.6036Z" fill="#FFB3B2"/>
</svg>
