<svg width="44" height="44" viewBox="0 0 44 44" fill="none" xmlns="http://www.w3.org/2000/svg">
<path d="M8.25 1.28906H13.75V10.358H8.25V1.28906Z" fill="#4D4389"/>
<path d="M38.5 15.5563V42.7108H5.5V15.5563L22 3.79749L38.5 15.5563Z" fill="#F0F7FF"/>
<path d="M38.5 15.5563V42.7108H22V3.79749L38.5 15.5563Z" fill="#D7E9FC"/>
<path d="M44 16.0514C44 18.0855 42.3302 19.4984 40.547 19.4984C39.863 19.4984 39.1617 19.2904 38.5318 18.8306L22 6.7693L5.4682 18.8306C3.19516 20.4901 0 18.8659 0 16.0514L22 0L44 16.0514Z" fill="#FF6398"/>
<path d="M44 16.0514C44 18.0855 42.3302 19.4984 40.547 19.4984C39.863 19.4984 39.1617 19.2904 38.5318 18.8306L22 6.7693V0L44 16.0514Z" fill="#FF2D75"/>
<path d="M6.54102 0H15.4734V2.57812H6.54102V0Z" fill="#FF6398"/>
<path d="M0 41.4219H44V44H0V41.4219Z" fill="#00D880"/>
<path d="M22 41.4219H44V44H22V41.4219Z" fill="#26A68F"/>
<path d="M33.3077 27.5L22 34.0304L16.3462 37.2952C12.9663 35.3401 10.6924 31.6852 10.6924 27.5C10.6924 27.5 16.3462 17.7057 16.3454 17.7057H16.3462C18.01 16.7432 19.9401 16.1924 22 16.1924C28.2451 16.1924 33.3077 21.255 33.3077 27.5Z" fill="#00B3FF"/>
<path d="M33.3077 27.5L22 34.0304V16.1924C28.2451 16.1924 33.3077 21.255 33.3077 27.5Z" fill="#3A80E8"/>
<path d="M22 24.6735C22.0073 26.1789 20.7604 27.4865 19.1736 27.5H10.6924C10.6924 23.3148 12.9663 19.6608 16.3454 17.7057H16.3462V19.0197C16.3462 20.5803 17.6121 21.8462 19.1736 21.8462C20.6794 21.8391 21.9866 23.0857 22 24.6735Z" fill="#BDE760"/>
<path d="M33.3077 27.5C33.3077 33.7451 28.2451 38.8077 22 38.8077C19.9401 38.8077 18.0091 38.2568 16.3462 37.2952V35.9803C16.3462 34.4197 17.6121 33.1538 19.1735 33.1538H22C23.5615 33.1538 24.8265 31.888 24.8265 30.3265C24.8196 28.8209 26.0657 27.5137 27.6538 27.5H33.3077Z" fill="#BDE760"/>
<path d="M33.3077 27.5C33.3077 33.7451 28.2451 38.8077 22 38.8077V33.1538C23.5615 33.1538 24.8265 31.888 24.8265 30.3265C24.8196 28.8209 26.0657 27.5137 27.6538 27.5H33.3077Z" fill="#00D880"/>
</svg>
