<svg width="472" height="356" viewBox="0 0 472 356" fill="none" xmlns="http://www.w3.org/2000/svg">
<mask id="mask0" mask-type="alpha" maskUnits="userSpaceOnUse" x="0" y="0" width="472" height="356">
<rect width="472" height="356" rx="8" fill="url(#paint0_linear)"/>
</mask>
<g mask="url(#mask0)">
<path d="M353.124 110.155C351.402 110.155 349.746 109.499 348.421 108.253C345.837 105.695 345.837 101.564 348.421 99.0063L441.171 7.19936C443.754 4.64188 447.928 4.64188 450.512 7.19936C453.096 9.75684 453.096 13.8884 450.512 16.4459L357.762 108.253C356.503 109.499 354.847 110.155 353.124 110.155Z" fill="#7E84A3" fill-opacity="0.1"/>
<path d="M363.063 44.5771C350.276 44.5771 339.875 34.2817 339.875 21.6255C339.875 8.96929 350.276 -1.32617 363.063 -1.32617C375.849 -1.32617 386.25 8.96929 386.25 21.6255C386.25 34.2817 375.849 44.5771 363.063 44.5771ZM363.063 11.7891C357.564 11.7891 353.125 16.1827 353.125 21.6255C353.125 27.0683 357.564 31.4619 363.063 31.4619C368.561 31.4619 373 27.0683 373 21.6255C373 16.1827 368.561 11.7891 363.063 11.7891Z" fill="#7E84A3" fill-opacity="0.1"/>
<path d="M435.938 116.711C423.151 116.711 412.75 106.416 412.75 93.7598C412.75 81.1036 423.151 70.8081 435.938 70.8081C448.724 70.8081 459.125 81.1036 459.125 93.7598C459.125 106.416 448.724 116.711 435.938 116.711ZM435.938 83.9233C430.439 83.9233 426 88.3169 426 93.7598C426 99.2026 430.439 103.596 435.938 103.596C441.436 103.596 445.875 99.2026 445.875 93.7598C445.875 88.3169 441.436 83.9233 435.938 83.9233Z" fill="#7E84A3" fill-opacity="0.1"/>
</g>
<defs>
<linearGradient id="paint0_linear" x1="-4.31769e-06" y1="31.5807" x2="714.926" y2="259.944" gradientUnits="userSpaceOnUse">
<stop stop-color="#EAFBF1"/>
<stop offset="1" stop-color="white"/>
</linearGradient>
</defs>
</svg>
