<svg width="229" height="113" viewBox="0 0 229 113" fill="none" xmlns="http://www.w3.org/2000/svg">
<path d="M22.7102 70.0808C22.0444 70.0339 21.0835 70.0977 20.0073 70.2747C18.931 70.4518 17.7409 70.7437 16.6317 71.1174C16.0347 71.3319 15.4708 71.5696 14.9644 71.8187C13.7465 72.4177 13.0949 72.9508 12.9371 73.2721C12.7794 73.5934 13.1101 73.703 13.9576 73.5663C14.8758 73.4181 15.8305 73.2972 16.8216 73.2096C19.6133 73.0361 22.4933 73.0911 25.3624 73.4287C28.2315 73.7663 31.0898 74.3872 33.8132 75.3101C36.0026 76.0298 38.1205 76.8421 40.1373 77.7169C42.2784 78.6451 44.3082 79.6445 46.1981 80.6573C49.8186 82.5441 53.3896 84.5586 56.8958 86.4986C58.8585 87.584 60.8027 88.6444 62.7355 89.6304C62.7355 89.6304 62.7355 89.6304 62.7355 89.6304C63.5142 90.0276 64.2912 90.4127 65.0672 90.7819C67.763 92.005 70.4271 93.1485 73.0107 94.0307C75.5942 94.9126 78.0969 95.5326 80.4697 95.6684C80.9575 95.6417 81.4067 95.631 81.8087 95.6295C83.4579 95.6236 84.3158 95.7815 83.7178 95.5735C83.3922 95.9126 83.4989 95.4957 83.9324 94.9743C84.3435 94.4024 84.5415 93.1942 84.7763 91.5595C84.7983 91.4064 84.8206 91.2495 84.8435 91.0891C84.9667 90.1726 84.987 89.1165 84.9493 87.9185C84.8734 85.5064 84.5607 82.5177 84.4 78.942C84.3144 77.0363 84.2726 74.964 84.3357 72.7253C84.4837 66.8686 85.7104 60.7607 88.2416 54.736L88.2416 54.736C90.7811 48.6767 94.9182 42.9912 100.55 38.2284C101.591 37.4024 102.646 36.6251 103.713 35.8952C109.507 31.9315 115.631 29.3654 121.537 27.9269C128.593 26.1343 135.017 25.3582 140.619 24.859C145.163 24.3915 149.185 24.0683 152.654 23.545C153.241 23.4565 153.812 23.3624 154.367 23.2613C154.704 23.1999 155.035 23.1359 155.361 23.0691C157.449 22.6021 159.357 22.13 161.012 21.5877C162.667 21.0455 164.068 20.4331 165.159 19.6975C166.407 19.068 167.806 17.8702 169.487 16.3592C171.169 14.8484 173.132 13.0248 175.462 11.1036C177.347 9.27298 179.653 7.54042 182.305 6.02368C186.555 3.5931 191.693 1.72838 197.412 0.725093C200.97 0.318368 204.397 0.491493 207.601 1.12491C210.804 1.7584 213.784 2.85232 216.48 4.29414C219.605 5.99014 222.177 8.06634 224.237 10.3359C226.296 12.6055 227.842 15.0688 228.945 17.5799C227.849 15.0635 226.309 12.594 224.255 10.3169C222.201 8.03972 219.631 5.95476 216.508 4.24892C213.809 2.79646 210.824 1.6921 207.614 1.0488C204.403 0.405663 200.966 0.223814 197.396 0.622988C191.689 1.61075 186.553 3.45083 182.297 5.85119C179.591 7.37705 177.241 9.125 175.324 10.9733C172.976 12.8919 171 14.7092 169.313 16.2072C167.625 17.7052 166.227 18.8838 164.991 19.4857C163.91 20.1987 162.521 20.7878 160.88 21.308C159.239 21.8282 157.345 22.2796 155.273 22.7288C155.038 22.7753 154.8 22.8203 154.559 22.8639C153.922 22.9792 153.263 23.0846 152.583 23.1823C149.126 23.6792 145.11 23.9759 140.562 24.4178C134.944 24.8844 128.487 25.6319 121.367 27.4C115.811 28.7206 110.054 31.0341 104.532 34.5614C103.02 35.5266 101.526 36.5827 100.059 37.7336C94.3016 42.5556 90.0611 48.3103 87.4418 54.4478L87.4418 54.4478C84.8246 60.5643 83.5293 66.7594 83.3293 72.695C83.2447 74.9961 83.2676 77.1168 83.3341 79.0557C83.4334 81.9564 83.6298 84.4507 83.7181 86.5388C83.7807 88.0191 83.7893 89.2955 83.6754 90.37C83.6527 90.5838 83.6252 90.7895 83.5924 90.9874C83.2806 92.7551 83.0823 93.9862 82.6819 94.3987C82.2995 94.6938 82.3553 94.881 82.9776 94.3172C83.6618 94.3367 83.5335 94.19 82.8548 94.0971C82.3783 94.0318 81.6299 93.9924 80.6929 94.0455C78.5458 93.8777 76.2675 93.2495 73.9006 92.3743C71.5337 91.4992 69.0784 90.3776 66.5775 89.1813C66.5775 89.1813 66.5775 89.1813 66.5774 89.1813C66.4337 89.1126 66.2897 89.0435 66.1457 88.9743C63.4323 87.5984 60.6946 86.0097 57.9091 84.3723C54.5452 82.3941 51.1075 80.3462 47.626 78.4199C47.1795 78.1649 46.724 77.9105 46.2601 77.6575C42.8484 75.7969 38.971 74.0323 34.8693 72.5857C30.9351 71.1531 26.7519 70.3653 22.7116 70.0812L22.7102 70.0808ZM16.3043 72.3639C15.4208 72.4473 14.1416 72.7843 12.8738 73.3115C11.6061 73.8388 10.3564 74.5563 9.43032 75.2874C8.50433 76.0183 8.06731 76.6003 8.02604 76.9141C7.98474 77.2279 8.3347 77.275 9.08546 77.0223C11.4247 76.2349 14.0696 75.6211 17.0139 75.3289C19.6834 75.127 22.4156 75.1573 25.128 75.4536C27.8404 75.7498 30.5331 76.3124 33.1032 77.1448C33.9612 77.4149 34.8079 77.7002 35.6418 77.999C39.0706 79.2265 42.2905 80.6932 45.2113 82.2054C48.9166 84.0763 52.5726 86.0842 56.175 88.017C57.355 88.6499 58.53 89.2741 59.7014 89.8798C59.7014 89.8798 59.7015 89.8798 59.7015 89.8798C61.2265 90.6684 62.7462 91.4258 64.2653 92.1278C67.0355 93.3546 69.7883 94.4965 72.4751 95.3737C75.162 96.2507 77.7828 96.8623 80.2883 96.9913C80.3242 96.9898 80.36 96.9882 80.3956 96.9868C82.9975 96.8793 84.7223 97.0865 84.3606 96.6621C84.304 96.8238 84.5751 96.2179 85.0764 95.4995C85.4493 94.9125 85.6655 93.9496 85.8499 92.713C85.9203 92.2418 85.9861 91.7309 86.0546 91.1865C86.1256 90.588 86.1571 89.9401 86.1596 89.2421C86.1692 86.5339 85.7385 83.0687 85.5283 78.8216C85.4358 76.9517 85.3868 74.9304 85.4399 72.7575C85.5652 66.9943 86.7462 60.9923 89.2108 55.084C91.6848 49.1386 95.7194 43.5595 101.215 38.8963C101.697 38.5119 102.182 38.1382 102.67 37.7751C108.801 33.2141 115.422 30.3223 121.804 28.7503C128.763 26.9663 135.136 26.1885 140.727 25.6783C145.261 25.2057 149.3 24.8729 152.809 24.3376C153.183 24.2805 153.551 24.2212 153.913 24.1593C154.478 24.0628 155.028 23.9599 155.563 23.8494C157.69 23.3743 159.644 22.8856 161.35 22.3194C163.056 21.753 164.513 21.109 165.667 20.335C166.972 19.6581 168.406 18.432 170.101 16.9097C171.796 15.3874 173.752 13.5693 176.057 11.6681C177.826 9.96353 179.953 8.34624 182.378 6.91669C186.627 4.41247 191.79 2.49849 197.538 1.5064C200.993 1.11412 204.323 1.28535 207.434 1.90389C210.546 2.5223 213.439 3.58774 216.054 4.9904C219.085 6.63958 221.581 8.6597 223.578 10.8676C225.575 13.0754 227.073 15.4708 228.138 17.9116C227.08 15.4659 225.588 13.0641 223.596 10.849C221.604 8.6337 219.112 6.60463 216.082 4.9454C213.464 3.53216 210.566 2.45628 207.447 1.82838C204.328 1.20045 200.988 1.02048 197.522 1.40552C191.784 2.38244 186.622 4.27115 182.366 6.74515C179.89 8.1842 177.721 9.81694 175.921 11.5392C173.599 13.4377 171.63 15.2495 169.929 16.7592C168.228 18.2689 166.795 19.4761 165.501 20.1258C164.358 20.8775 162.912 21.4986 161.219 22.0432C159.527 22.5879 157.588 23.0562 155.476 23.5138C155.033 23.6023 154.579 23.6854 154.115 23.7639C153.666 23.84 153.207 23.9118 152.739 23.98C149.241 24.4896 145.208 24.7963 140.67 25.2439C135.064 25.722 128.658 26.4722 121.636 28.2327C115.585 29.6878 109.308 32.3243 103.399 36.4348C102.501 37.0594 101.612 37.718 100.733 38.4116C95.1152 43.1327 90.9796 48.7795 88.4283 54.8019C85.8809 60.7997 84.6337 66.8869 84.4584 72.7273C84.3851 74.9599 84.4163 77.0279 84.491 78.9307C84.632 82.5262 84.9261 85.5306 84.9785 87.9499C85.0042 89.1352 84.9723 90.1803 84.8394 91.0871C84.815 91.2447 84.7911 91.3988 84.7675 91.5493C84.511 93.1858 84.2919 94.3881 83.8648 94.9419C83.4138 95.4424 83.3003 95.8272 83.6446 95.4492C84.2422 95.6154 83.4966 95.441 81.9956 95.411C81.5577 95.4023 81.055 95.4052 80.5011 95.4305L80.5011 95.4305C78.1525 95.2681 75.6804 94.6208 73.1303 93.7141C70.5803 92.8074 67.9526 91.6419 65.2927 90.4006C64.7268 90.1234 64.1604 89.8377 63.5932 89.5447C63.5932 89.5447 63.5932 89.5447 63.5932 89.5447C61.4557 88.4408 59.3051 87.2364 57.1306 86.0017C53.6691 84.0355 50.1412 81.9968 46.5619 80.0839C45.0655 79.2611 43.4772 78.4458 41.8114 77.6681C39.3881 76.5364 36.7975 75.4854 34.097 74.5734C31.3137 73.6044 28.3886 72.9519 25.4557 72.5917C22.5227 72.2314 19.5816 72.1626 16.7408 72.3231C16.5943 72.3354 16.4486 72.3484 16.3037 72.3621L16.3043 72.3639ZM10.8688 75.5752C10.0783 75.7846 9.00116 76.2865 7.97971 76.9595C6.95826 77.6325 5.99819 78.4751 5.33756 79.2772C4.67693 80.0792 4.4272 80.669 4.48016 80.956C4.53315 81.2429 4.8853 81.2292 5.53193 80.8862C8.67647 79.2178 12.573 77.846 17.1959 77.3379C19.524 77.1303 21.8974 77.1188 24.2603 77.3195C26.6233 77.5202 28.9761 77.9333 31.2505 78.5564C31.6441 78.6641 32.0354 78.778 32.4242 78.8982C36.6724 80.1765 40.6663 81.8889 44.2633 83.6916C48.046 85.5454 51.7837 87.5478 55.4823 89.477C55.8719 89.6802 56.2612 89.8825 56.6502 90.0836C56.6502 90.0836 56.6502 90.0836 56.6502 90.0836C58.9341 91.2642 61.2085 92.4045 63.4884 93.4307C66.3291 94.6621 69.1672 95.8041 71.9539 96.6778C74.7408 97.5516 77.4763 98.1568 80.1117 98.2809C82.942 98.1838 84.9874 98.3235 84.9889 97.7272C85.1962 97.7161 85.6288 96.9261 86.1973 96.0153C86.509 95.4822 86.7217 94.7545 86.8872 93.8732C87.0298 93.1146 87.1374 92.2419 87.2439 91.2834C87.2703 91.0321 87.2904 90.7736 87.3048 90.5078C87.4668 87.5178 86.9024 83.6007 86.6388 78.7058C86.5399 76.8713 86.4842 74.8998 86.5279 72.7905C86.6312 67.1199 87.768 61.2224 90.1675 55.4286C92.5771 49.5961 96.5115 44.1223 101.874 39.5579C104.445 37.4932 107.127 35.7419 109.857 34.277C113.888 32.1141 118.023 30.576 122.069 29.5684C128.932 27.794 135.255 27.0158 140.835 26.496C145.36 26.0191 149.416 25.6777 152.965 25.1311C153.124 25.1066 153.282 25.0817 153.439 25.0564C154.242 24.9269 155.018 24.7862 155.768 24.6308C157.934 24.1479 159.933 23.6429 161.69 23.0525C163.447 22.4622 164.961 21.7866 166.177 20.9743C167.541 20.2503 169.009 18.9959 170.718 17.4621C172.427 15.9284 174.376 14.1156 176.656 12.2347C178.31 10.6531 180.266 9.14877 182.477 7.80638C186.72 5.23025 191.901 3.26816 197.668 2.28993C201.019 1.91208 204.251 2.08174 207.271 2.68488C210.291 3.28823 213.098 4.32512 215.632 5.6889C218.566 7.28999 220.984 9.25257 222.918 11.3963C224.851 13.5401 226.301 15.8654 227.329 18.2329C226.308 15.8605 224.865 13.5291 222.936 11.3778C221.007 9.22661 218.593 7.25545 215.659 5.64414C213.122 4.27023 210.31 3.22305 207.284 2.61035C204.257 1.9976 201.015 1.81925 197.652 2.18978C197.652 2.18977 197.652 2.18979 197.652 2.18979C191.894 3.15277 186.713 5.08948 182.461 7.63564C180.202 8.98819 178.205 10.5078 176.522 12.1072C174.225 13.9856 172.262 15.7921 170.547 17.3134C168.832 18.8347 167.365 20.0704 166.013 20.7677C164.807 21.5579 163.305 22.2109 161.561 22.7797C159.817 23.3487 157.833 23.8337 155.682 24.2994C155.026 24.431 154.349 24.5512 153.651 24.6623C153.402 24.702 153.151 24.7405 152.897 24.778C149.358 25.2998 145.308 25.616 140.779 26.0692C135.185 26.5583 128.83 27.3106 121.906 29.0624C115.387 30.6481 108.622 33.608 102.394 38.3185C102.062 38.5691 101.732 38.8247 101.404 39.0853L101.404 39.0853C95.9235 43.7062 91.8909 49.2458 89.4057 55.1543C86.9264 61.0347 85.7248 67.0158 85.5731 72.762C85.5102 74.9284 85.549 76.945 85.631 78.8117C85.8184 83.0788 86.2273 86.5606 86.1891 89.2741C86.1794 89.9608 86.1414 90.5985 86.0649 91.1878C85.9907 91.7294 85.919 92.2372 85.843 92.7051C85.6422 93.9425 85.4103 94.9008 85.0244 95.4758C84.5054 96.1761 84.2257 96.7528 84.2979 96.5552C84.6712 96.9281 83.0906 96.7033 80.6502 96.7671C80.5413 96.7699 80.4307 96.7733 80.3184 96.7773C77.8344 96.6228 75.2419 95.9854 72.5861 95.0846C69.9304 94.1841 67.2117 93.0211 64.4749 91.7768C63.1742 91.1592 61.8734 90.5 60.5687 89.8151C60.5687 89.8151 60.5687 89.8151 60.5687 89.8151C59.1822 89.0871 57.7909 88.33 56.392 87.5606C52.833 85.6024 49.2183 83.5707 45.551 81.6735C43.0195 80.3295 40.2514 79.0164 37.306 77.8654C36.0262 77.3649 34.7119 76.8938 33.3691 76.4592C30.7505 75.5865 28.0012 74.9942 25.2299 74.6755C22.4588 74.3567 19.6658 74.3111 16.9388 74.4998C14.7482 74.7055 12.7237 75.0845 10.8692 75.5756L10.8688 75.5752ZM6.80304 79.3092C6.11403 79.6192 5.2362 80.2389 4.44918 81.0038C3.66216 81.7687 2.97067 82.6762 2.54888 83.498C2.12709 84.3198 2.03851 84.885 2.16545 85.1318C2.29239 85.3787 2.63211 85.31 3.16967 84.9024C4.89007 83.598 6.92726 82.3761 9.29598 81.3815C11.6648 80.3869 14.3661 79.6195 17.3702 79.256C20.5577 78.9269 23.8441 79.0105 27.0669 79.5212C28.6566 79.7724 30.2335 80.1265 31.7734 80.5796C35.8868 81.761 39.7846 83.3909 43.3512 85.1229C46.7951 86.7634 50.2109 88.5326 53.6056 90.2676L53.6057 90.2677C54.0095 90.4741 54.4132 90.6799 54.8168 90.8849C57.4552 92.2247 60.0878 93.53 62.7358 94.6936C65.6433 95.9303 68.5632 97.0732 71.4472 97.9453C74.3309 98.8174 77.1782 99.4182 79.94 99.539C82.9343 99.4631 85.2429 99.5269 85.6048 98.7693C86.0712 98.5894 86.6625 97.6195 87.2978 96.5205C87.5261 96.1059 87.7061 95.6121 87.8527 95.0504C88.0968 94.1159 88.2482 92.9929 88.3776 91.7379C88.3898 91.619 88.4019 91.4989 88.4138 91.3776C88.7155 88.1439 88.0425 83.9089 87.734 78.5911C87.6297 76.7919 87.5681 74.8692 87.6036 72.8221C87.6867 67.243 88.7813 61.4489 91.1172 55.7692C93.4644 50.0491 97.3 44.6813 102.529 40.2152C105.016 38.2067 107.617 36.4987 110.27 35.0654C114.24 32.9208 118.327 31.3913 122.334 30.3829C129.101 28.6181 135.374 27.8391 140.943 27.3097C145.385 26.8362 149.399 26.49 152.945 25.9472C153.004 25.9382 153.062 25.9292 153.121 25.9201C154.107 25.7668 155.057 25.5981 155.971 25.408C158.176 24.9174 160.22 24.3962 162.028 23.7821C163.836 23.1681 165.407 22.4611 166.685 21.6108C168.107 20.8397 169.61 19.5571 171.333 18.0122C173.056 16.4672 174.998 14.6599 177.254 12.7989C178.819 11.3132 180.646 9.89776 182.695 8.62643C186.911 6.01014 192.066 4.02486 197.795 3.0711L197.795 3.0711C201.043 2.70765 204.179 2.87556 207.106 3.46376C210.034 4.052 212.755 5.06042 215.207 6.38466C218.044 7.93647 220.382 9.83957 222.251 11.917C224.121 13.9948 225.522 16.2475 226.513 18.5395C225.529 16.2428 224.134 13.9839 222.269 11.8986C220.405 9.81352 218.069 7.90186 215.234 6.3402C212.779 5.00568 210.054 3.98709 207.119 3.38967C204.184 2.79207 201.039 2.61545 197.779 2.97164C192.012 3.9178 186.82 5.90151 182.575 8.51781C180.522 9.78368 178.69 11.1929 177.121 12.672C174.849 14.5303 172.893 16.3314 171.164 17.8642C169.435 19.397 167.933 20.6612 166.523 21.4059C165.255 22.2346 163.695 22.9192 161.9 23.5122C160.105 24.1052 158.075 24.6066 155.886 25.0802C155.013 25.2562 154.106 25.4123 153.165 25.5541C153.128 25.5598 153.09 25.5654 153.053 25.571C149.474 26.1046 145.407 26.4298 140.887 26.8879C135.304 27.3875 129 28.141 122.172 29.8837C115.411 31.5469 108.402 34.6914 102.067 39.75C101.885 39.9035 101.705 40.0581 101.527 40.2138C96.4559 44.6404 92.7078 49.9012 90.3696 55.4993C87.9563 61.2639 86.7993 67.1395 86.6699 72.7929C86.6166 74.8951 86.6623 76.8615 86.7509 78.6923C86.9886 83.6076 87.5281 87.5428 87.3324 90.5365C87.3156 90.7923 87.2936 91.0413 87.2657 91.2834C87.1495 92.2396 87.0321 93.1088 86.8804 93.8631C86.7034 94.7446 86.4793 95.4693 86.1577 95.9952C85.5712 96.8904 85.1286 97.654 84.9341 97.6318C84.9512 98.1904 82.9385 98.01 80.139 98.084C79.7407 98.0614 79.3402 98.0276 78.9377 97.9834C76.496 97.715 73.98 97.065 71.4259 96.2002C68.8716 95.3355 66.2791 94.2562 63.6839 93.103C61.6289 92.1541 59.5786 91.1103 57.5207 90.0274C57.5207 90.0274 57.5207 90.0274 57.5207 90.0274C56.9092 89.7056 56.297 89.3803 55.6837 89.0527C52.0274 87.0993 48.3292 85.0732 44.5816 83.1925C41.0393 81.3733 37.0873 79.6368 32.8672 78.314C32.8029 78.2938 32.7385 78.2737 32.6741 78.2537C30.1938 77.4627 27.5974 76.9251 24.9778 76.6454C22.3583 76.3656 19.7159 76.3434 17.126 76.5557C13.1472 76.9692 9.69889 78.0055 6.8041 79.308L6.80304 79.3092ZM3.97965 83.2922C3.398 83.6771 2.71441 84.3704 2.14822 85.179C1.58203 85.9877 1.13718 86.9083 0.928084 87.7074C0.718986 88.5065 0.766912 89.0224 0.949369 89.2212C1.13185 89.42 1.44692 89.305 1.87277 88.8585C3.52889 87.1221 5.64411 85.4365 8.25805 84.0481C10.8719 82.6598 13.986 81.5692 17.5372 81.098C19.4063 80.877 21.3175 80.8134 23.236 80.9095C25.8849 81.0411 28.5598 81.4777 31.1459 82.2003C35.1235 83.2882 38.9294 84.8398 42.4683 86.507C45.1829 87.7654 47.887 89.1071 50.5846 90.4565C50.5846 90.4565 50.5846 90.4566 50.5846 90.4566C51.7809 91.055 52.9769 91.6546 54.1737 92.2475C56.7736 93.5352 59.3765 94.7926 62.0034 95.9225C64.9747 97.165 67.9737 98.3101 70.9516 99.1816C73.9294 100.053 76.8858 100.651 79.7711 100.769C82.9257 100.715 85.4926 100.706 86.2075 99.791C86.9287 99.4464 87.6763 98.3005 88.3779 97.017C88.502 96.7816 88.613 96.5281 88.7127 96.2578C89.0529 95.3367 89.2617 94.22 89.4126 92.9645C89.4702 92.4856 89.5194 91.9866 89.5644 91.4707C89.8453 88.0824 89.1424 83.7834 88.8141 78.4793C88.7048 76.715 88.638 74.8401 88.6655 72.8529C88.7296 67.3648 89.7832 61.6732 92.0565 56.1065C94.3426 50.4983 98.0805 45.2352 103.179 40.8678C105.471 39.0056 107.869 37.4054 110.322 36.0453C114.343 33.8163 118.508 32.2333 122.596 31.1935C129.267 29.439 135.491 28.6599 141.049 28.1208C145.211 27.6726 149.017 27.3337 152.433 26.8356C152.717 26.7943 152.997 26.752 153.275 26.7084C154.275 26.5515 155.241 26.3789 156.172 26.1846C158.416 25.6866 160.506 25.1494 162.365 24.5119C164.224 23.8742 165.852 23.1361 167.192 22.2477C168.672 21.4296 170.21 20.1191 171.947 18.5627C173.684 17.0065 175.62 15.2047 177.85 13.3638C179.396 11.9081 181.188 10.522 183.188 9.27848C187.327 6.7039 192.356 4.76122 197.923 3.85334C201.067 3.50429 204.105 3.67072 206.941 4.24382C209.777 4.81696 212.411 5.79688 214.782 7.08187C217.519 8.58336 219.776 10.4252 221.581 12.435C223.386 14.4449 224.738 16.6231 225.692 18.8378C224.745 16.6187 223.399 14.4343 221.599 12.4171C219.799 10.3998 217.544 8.54942 214.809 7.03805C212.435 5.74298 209.797 4.75312 206.954 4.17076C204.111 3.58832 201.064 3.41341 197.907 3.75527C192.277 4.65959 187.189 6.61537 183.01 9.2083C181.029 10.437 179.253 11.804 177.719 13.2388C175.472 15.0769 173.523 16.8725 171.78 18.4168C170.038 19.9611 168.5 21.2535 167.032 22.0454C165.702 22.9123 164.085 23.6284 162.239 24.2454C160.393 24.8623 158.317 25.38 156.088 25.8615C155.163 26.0488 154.203 26.2143 153.207 26.3642C153.026 26.3915 152.844 26.4182 152.66 26.4445C149.178 26.9434 145.279 27.2658 140.994 27.7047C135.422 28.2138 129.167 28.9669 122.436 30.7003C118.323 31.7227 114.127 33.2927 110.063 35.514C107.547 36.8889 105.083 38.5132 102.722 40.4093C97.5103 44.8314 93.678 50.1592 91.3209 55.8416C91.321 55.8416 91.3209 55.8416 91.3209 55.8416C88.9721 61.4918 87.858 67.2635 87.7504 72.825C87.706 74.8649 87.7581 76.7822 87.8528 78.5776C88.1333 83.9 88.7771 88.1452 88.4448 91.3791C88.4307 91.5096 88.4164 91.6388 88.402 91.7666C88.2612 93.0085 88.098 94.1184 87.8449 95.0407C87.6908 95.6026 87.5035 96.095 87.2681 96.5062C86.6146 97.5919 86.0119 98.5378 85.5555 98.6866C85.2081 99.4091 82.9292 99.3063 79.9634 99.3595C77.2198 99.2156 74.397 98.5913 71.5406 97.6977C68.6841 96.8042 65.7941 95.6417 62.916 94.3887C60.2694 93.1971 57.6391 91.8617 55.0014 90.4908C54.8244 90.3988 54.6474 90.3066 54.4704 90.2144C54.4704 90.2143 54.4704 90.2143 54.4704 90.2143C50.8919 88.3485 47.2885 86.4302 43.6478 84.6545C40.0832 82.8811 36.164 81.2059 32.0065 79.973C30.8844 79.632 29.7413 79.3433 28.5865 79.1085C24.8732 78.3519 21.0275 78.1612 17.3022 78.5164C14.5642 78.8293 12.0725 79.4677 9.84968 80.3028C7.62675 81.138 5.67203 82.1701 3.97884 83.2906L3.97965 83.2922ZM2.27166 87.2952C1.80094 87.7291 1.30421 88.4557 0.944012 89.2657C0.583812 90.0758 0.363142 90.9653 0.341181 91.7076C0.319236 92.4498 0.480634 92.8986 0.702217 93.0459C0.923795 93.1933 1.20427 93.0427 1.518 92.5819C2.93363 90.5025 4.95111 88.4007 7.65171 86.6374C10.3521 84.8742 13.7387 83.4505 17.6986 82.8746C18.4171 82.7779 19.1439 82.7073 19.8768 82.6628C23.3611 82.4498 27.0137 82.8349 30.5399 83.7665C34.3813 84.7638 38.0992 86.2411 41.6135 87.8486C43.612 88.7509 45.6091 89.701 47.6061 90.6695C47.6061 90.6695 47.6061 90.6695 47.6061 90.6695C49.5843 91.629 51.5647 92.607 53.5523 93.5687C56.1135 94.8079 58.6864 96.0215 61.2901 97.1193C64.3224 98.3683 67.398 99.5164 70.4673 100.389C73.5368 101.261 76.5999 101.857 79.6064 101.973C82.9175 101.942 85.7382 101.862 86.7999 100.794C87.7717 100.288 88.6733 98.9706 89.4406 97.5065C89.4408 97.5061 89.4408 97.5059 89.4412 97.5056C89.9077 96.5911 90.2032 95.4748 90.404 94.2137C90.5355 93.3866 90.6264 92.4972 90.6988 91.5626C90.96 88.0208 90.228 83.6588 89.8809 78.3704C89.7672 76.6409 89.6957 74.8128 89.7161 72.8845C89.762 67.4863 90.7756 61.8967 92.9888 56.4416C92.9888 56.4416 92.9888 56.4416 92.9888 56.4416C95.2146 50.9448 98.8564 45.7864 103.825 41.5171C105.93 39.7961 108.135 38.3019 110.395 37.0166C114.456 34.7061 118.693 33.0718 122.858 32.0012C129.434 30.2576 135.609 29.4787 141.157 28.9308C145.041 28.5084 148.636 28.1788 151.908 27.7219C152.423 27.65 152.93 27.575 153.429 27.4961C154.445 27.3357 155.427 27.1594 156.375 26.9608C158.658 26.4555 160.793 25.9024 162.703 25.2415C164.613 24.5804 166.298 23.8111 167.7 22.885C169.238 22.0201 170.811 20.6816 172.562 19.1142C174.313 17.5467 176.242 15.7506 178.448 13.9298C179.973 12.5053 181.728 11.1496 183.676 9.93464C187.74 7.40026 192.645 5.49889 198.05 4.63688C201.092 4.30221 204.032 4.46705 206.776 5.02522C209.52 5.58332 212.068 6.53465 214.358 7.78049C216.992 9.23068 219.168 11.0101 220.907 12.9504C222.646 14.891 223.95 16.9928 224.868 19.128C223.957 16.9885 222.66 14.8805 220.925 12.9327C219.19 10.985 217.017 9.19696 214.384 7.73697C212.092 6.48139 209.54 5.52015 206.789 4.9529C204.038 4.38562 201.088 4.21236 198.034 4.53995L198.034 4.53996C192.569 5.39815 187.607 7.3112 183.505 9.8623C181.573 11.0634 179.832 12.4012 178.317 13.8062C176.095 15.6241 174.153 17.4144 172.397 18.9699C170.64 20.5255 169.068 21.8462 167.541 22.6853C166.149 23.5903 164.475 24.3379 162.577 24.9786C160.68 25.6192 158.559 26.153 156.291 26.6419C155.348 26.8334 154.372 27.0028 153.362 27.1563C152.96 27.2173 152.553 27.2759 152.14 27.3324C148.797 27.7899 145.108 28.1054 141.102 28.5205C135.54 29.039 129.336 29.7927 122.7 31.5157C118.511 32.5682 114.244 34.189 110.139 36.4907C107.817 37.7922 105.548 39.3111 103.376 41.0663C98.2962 45.3892 94.562 50.6117 92.2665 56.1821C89.9803 61.7186 88.908 67.3873 88.8199 72.8576C88.7836 74.8369 88.8412 76.7061 88.941 78.4661C89.2421 83.7739 89.9167 88.0838 89.6061 91.4737C89.5556 91.9995 89.5006 92.5075 89.4369 92.9942C89.2742 94.2367 89.054 95.3401 88.7064 96.2485C88.6028 96.5195 88.4878 96.7733 88.3597 97.0084C87.6398 98.2807 86.8794 99.4047 86.1657 99.7206C85.4613 100.603 82.9212 100.575 79.7927 100.606C76.9239 100.466 73.9904 99.8453 71.0381 98.9528C68.0859 98.0605 65.1153 96.8967 62.1714 95.638C59.5458 94.4825 56.9447 93.1971 54.3452 91.8806C53.3769 91.3903 52.409 90.8953 51.4407 90.4001C51.4407 90.4001 51.4407 90.4001 51.4407 90.4001C48.5545 88.9239 45.6589 87.4477 42.7476 86.067L42.7476 86.067C39.2114 84.3607 35.386 82.7658 31.3662 81.6285C29.1615 80.991 26.8858 80.5597 24.6094 80.3474C22.2173 80.1232 19.8164 80.1413 17.4726 80.3979C14.1332 80.8162 11.1687 81.765 8.63081 82.9906C6.09289 84.2162 3.98037 85.7184 2.27058 87.2947L2.27166 87.2952ZM1.55462 91.1299C1.14939 91.6475 0.797364 92.5046 0.648027 93.3907C0.535716 94.0741 0.54273 94.7676 0.665974 95.3378C0.807688 95.9934 1.05861 96.3615 1.30301 96.4585C1.54742 96.5555 1.78514 96.3841 1.98795 95.9342C2.18114 95.5056 2.39873 95.0717 2.64361 94.6353C3.78963 92.5981 5.53244 90.5139 7.945 88.7238C10.3575 86.9338 13.4431 85.4386 17.0809 84.7315C17.3361 84.6818 17.594 84.636 17.8546 84.5942C19.7653 84.3012 21.7646 84.216 23.8008 84.3351C25.8368 84.4543 27.9095 84.7779 29.9518 85.2858C33.6576 86.1953 37.2906 87.6014 40.7816 89.1531C42.0813 89.7251 43.3823 90.3185 44.685 90.9256C44.685 90.9256 44.685 90.9256 44.685 90.9256C47.4246 92.2023 50.1752 93.5417 52.9492 94.8547C55.4716 96.0487 58.0135 97.2212 60.5929 98.2893C63.6838 99.545 66.8338 100.697 69.9928 101.57C73.1517 102.444 76.3194 103.039 79.4453 103.156C82.9099 103.148 85.9801 102.999 87.3829 101.781C88.3954 101.23 89.2936 100.111 90.0466 98.8058C90.2004 98.5395 90.348 98.2656 90.4893 97.9872C90.8563 97.2482 91.1252 96.4102 91.3252 95.4946C91.5806 94.3253 91.724 93.029 91.8184 91.6533C92.061 87.959 91.3012 83.5354 90.9359 78.2639C90.8185 76.5689 90.7426 74.7868 90.7563 72.9157C90.785 67.6067 91.7599 62.1179 93.9133 56.7742C96.0801 51.388 99.6266 46.3339 104.467 42.162C106.395 40.5771 108.414 39.1871 110.486 37.9778C114.58 35.5891 118.882 33.9055 123.12 32.8051C129.601 31.0726 135.727 30.2945 141.264 29.7385C144.877 29.3421 148.255 29.0242 151.371 28.6058C152.124 28.5047 152.862 28.3978 153.584 28.2829C154.614 28.1191 155.612 27.9389 156.578 27.7363C158.9 27.2239 161.08 26.6552 163.041 25.9707C165.002 25.2863 166.744 24.486 168.209 23.5219C169.805 22.6102 171.413 21.2438 173.178 19.6652C174.943 18.0865 176.866 16.296 179.047 14.4955C180.55 13.1032 182.267 11.7788 184.163 10.593C188.153 8.09745 192.934 6.23671 198.18 5.42012L198.18 5.42014C201.118 5.09986 203.961 5.26308 206.614 5.80598C209.266 6.34899 211.727 7.27182 213.935 8.47813C216.466 9.87621 218.559 11.5917 220.232 13.4614C221.905 15.3311 223.16 17.3552 224.043 19.4095C223.167 17.3511 221.919 15.3212 220.25 13.4442C218.581 11.5673 216.491 9.8434 213.961 8.4356C211.751 7.21962 209.285 6.287 206.627 5.735C203.968 5.18285 201.115 5.01128 198.164 5.32461C192.862 6.13658 188.026 8.00803 183.997 10.5192C182.116 11.692 180.412 12.9996 178.918 14.3737C176.721 16.1714 174.786 17.956 173.015 19.5228C171.244 21.0897 169.637 22.4386 168.052 23.3246C166.597 24.2677 164.867 25.0465 162.918 25.7106C160.97 26.3748 158.803 26.9245 156.496 27.421C155.536 27.6167 154.543 27.7899 153.519 27.9469C152.894 28.0426 152.257 28.1323 151.609 28.2174C148.419 28.6365 144.943 28.9428 141.211 29.3334C135.66 29.8607 129.505 30.6142 122.965 32.3268C118.706 33.4084 114.373 35.0779 110.235 37.4576C108.101 38.6842 106.019 40.0996 104.027 41.7188C99.0777 45.9433 95.4405 51.0606 93.2051 56.5195C90.9805 61.9432 89.9487 67.5094 89.879 72.8898C89.8502 74.8101 89.9129 76.6321 90.0174 78.3571C90.3379 83.6489 91.0422 88.0224 90.7517 91.5672C90.6708 92.5127 90.5706 93.4112 90.4287 94.2449C90.2161 95.4933 89.9098 96.5964 89.4372 97.4979C89.4365 97.4994 89.4358 97.5009 89.4346 97.5026C88.6486 98.9579 87.7329 100.256 86.7661 100.736C85.7113 101.773 82.9147 101.817 79.6277 101.827C76.6362 101.688 73.5945 101.07 70.5493 100.178C67.5039 99.2857 64.4551 98.1193 61.4491 96.8549C58.8461 95.7329 56.2748 94.4935 53.7138 93.2276C51.9556 92.3585 50.2025 91.4763 48.4506 90.6055L48.4505 90.6055C46.262 89.5177 44.0723 88.4477 41.8787 87.4347C38.3683 85.7905 34.6329 84.2719 30.7503 83.2268C27.5698 82.3546 24.27 81.9232 21.0653 81.9729C19.9113 81.9902 18.7668 82.0694 17.6398 82.2101C13.841 82.7309 10.549 84.0073 7.86255 85.6168C5.17591 87.2264 3.09205 89.1687 1.55649 91.1304L1.55462 91.1299ZM1.70897 94.6463C1.46351 95.1042 1.31485 95.7889 1.31636 96.4927C1.31789 97.1965 1.46943 97.9157 1.73458 98.4702C1.99975 99.0247 2.31081 99.3131 2.56472 99.3655C2.81865 99.4179 3.01578 99.2369 3.12378 98.8162C3.38237 97.8089 3.76952 96.7527 4.33003 95.6871C5.19839 94.0252 6.50218 92.3322 8.27638 90.8104C10.0506 89.2886 12.2968 87.9383 14.9503 87.0436C15.9161 86.7174 16.9367 86.4514 18.006 86.2624C19.7661 85.9554 21.6285 85.8494 23.5432 85.9378C25.458 86.0261 27.425 86.3088 29.3797 86.7635C32.9507 87.5876 36.5018 88.9258 39.9707 90.4248C40.5916 90.6913 41.2134 90.963 41.8359 91.2391C41.8359 91.2391 41.8359 91.2391 41.8359 91.2391C45.3074 92.7788 48.8081 94.4609 52.3626 96.109C54.8464 97.2605 57.3566 98.3944 59.9104 99.4343C63.0576 100.697 66.2799 101.853 69.5261 102.729C72.7725 103.605 76.0427 104.2 79.2855 104.317C82.9006 104.332 86.2168 104.117 87.9553 102.753C88.9281 102.208 89.786 101.295 90.5164 100.209C90.8845 99.6623 91.2202 99.0713 91.5213 98.4623C91.7711 97.9484 91.9784 97.3978 92.1509 96.8159C92.5986 95.3045 92.8106 93.5805 92.9226 91.7431C93.1474 87.897 92.3608 83.4132 91.9783 78.1596C91.8574 76.499 91.7776 74.762 91.7848 72.9463C91.7972 67.7259 92.7343 62.337 94.829 57.1036C96.9378 51.8277 100.39 46.877 105.104 42.8025C106.862 41.3484 108.702 40.0609 110.595 38.9282C114.712 36.4647 119.074 34.7342 123.378 33.6051C129.765 31.8844 135.842 31.1074 141.37 30.5431C144.716 30.1731 147.874 29.8686 150.822 29.4861C151.818 29.3569 152.79 29.219 153.737 29.0673C154.782 28.9001 155.796 28.7163 156.779 28.5096C159.14 27.9901 161.366 27.4059 163.378 26.6982C165.39 25.9905 167.189 25.1594 168.716 24.1576C170.371 23.1994 172.013 21.805 173.792 20.2154C175.572 18.6256 177.488 16.8407 179.644 15.0604C181.125 13.7014 182.802 12.4091 184.645 11.2531C188.561 8.79512 193.221 6.9738 198.307 6.20283C201.143 5.89695 203.889 6.05845 206.449 6.58643C209.009 7.11438 211.384 8.00858 213.51 9.17546C215.937 10.5207 217.946 12.1715 219.552 13.9689C221.16 15.7665 222.365 17.7113 223.213 19.6835C222.372 17.7075 221.173 15.7569 219.57 13.9522C217.968 12.1474 215.962 10.4884 213.536 9.13363C211.407 7.95724 209.029 7.0533 206.462 6.51646C203.895 5.97948 201.14 5.80953 198.292 6.10864C195.722 6.49166 193.259 7.13557 190.943 7.99814C188.628 8.86065 186.462 9.94174 184.485 11.1779C182.655 12.3217 180.988 13.5982 179.517 14.9402C177.345 16.7176 175.416 18.4966 173.631 20.0749C171.846 21.653 170.204 23.03 168.56 23.9631C167.043 24.9441 165.256 25.754 163.256 26.4418C161.256 27.1294 159.044 27.6949 156.698 28.1984C155.72 28.3983 154.711 28.5753 153.672 28.7357C152.823 28.8668 151.953 28.9869 151.064 29.0994C148.038 29.4826 144.781 29.7779 141.317 30.1437C135.777 30.6796 129.671 31.4325 123.225 33.1337C118.9 34.2437 114.508 35.9595 110.345 38.4136C108.393 39.5647 106.49 40.8782 104.67 42.3665C99.8502 46.4928 96.3086 51.5057 94.1329 56.854C94.1329 56.854 94.1329 56.854 94.1329 56.854C91.9683 62.1659 90.976 67.6307 90.9239 72.9215C90.9021 74.7844 90.9693 76.5602 91.0781 78.2506C91.417 83.5248 92.1498 87.9606 91.8788 91.6596C91.7728 93.0474 91.6165 94.3531 91.3464 95.5276C91.1382 96.433 90.8623 97.2606 90.4908 97.9894C90.3475 98.2644 90.1979 98.5348 90.0425 98.7974C89.2746 100.096 88.3652 101.201 87.3536 101.733C85.9546 102.923 82.9057 103.037 79.4634 103.024C76.3515 102.886 73.2038 102.27 70.0678 101.376C66.9317 100.483 63.8073 99.3138 60.7412 98.0425C58.1622 96.9518 55.6215 95.7552 53.0992 94.5366C50.5547 93.3071 48.0289 92.0546 45.5108 90.849C45.5108 90.849 45.5108 90.849 45.5108 90.849C44.0165 90.1336 42.5238 89.4342 41.0319 88.7627C37.5453 87.1763 33.8962 85.7305 30.1506 84.7745C28.1255 84.2501 26.0635 83.906 24.028 83.7612C21.9924 83.6164 19.9833 83.6708 18.0504 83.9275C17.966 83.9387 17.8817 83.9502 17.7976 83.9622C15.8028 84.2619 13.9525 84.7945 12.2738 85.4834C10.5952 86.1723 9.08809 87.0174 7.76333 87.9523C5.11372 89.8221 3.2054 92.0398 1.95427 94.2065C1.86962 94.354 1.78802 94.5011 1.70938 94.6478L1.70897 94.6463ZM2.60149 97.7222C2.45759 98.1561 2.44936 98.7766 2.58416 99.3935C2.71897 100.01 2.99603 100.62 3.35015 101.07C3.70428 101.521 4.05328 101.732 4.30717 101.747C4.56106 101.762 4.72049 101.581 4.7503 101.202C4.8599 99.8082 5.21319 98.2647 5.96784 96.7086C6.59283 95.395 7.52404 94.0545 8.77749 92.802C10.0309 91.5495 11.6072 90.3851 13.4743 89.4662C14.8765 88.7752 16.4462 88.2202 18.1531 87.8858C19.7642 87.5658 21.4924 87.4397 23.2891 87.4982C25.0859 87.5568 26.951 87.8 28.8219 88.2039C32.2237 88.9374 35.6586 90.1909 39.0722 91.6215C39.0722 91.6215 39.0722 91.6215 39.0722 91.6215C39.1078 91.6364 39.1434 91.6514 39.179 91.6663C43.3099 93.3961 47.501 95.3837 51.7915 97.334C54.2365 98.4455 56.7147 99.543 59.2416 100.556C62.4431 101.827 65.7358 102.988 69.0675 103.866C72.3995 104.745 75.7707 105.341 79.129 105.459C82.8919 105.498 86.4504 105.218 88.5202 103.71C89.3773 103.221 90.1453 102.519 90.82 101.687C91.4863 100.867 92.0618 99.9199 92.5405 98.9306C92.6563 98.6883 92.7635 98.4396 92.8627 98.185C93.5876 96.326 93.8893 94.1495 94.0146 91.8315C94.2224 87.8342 93.4096 83.2908 93.0106 78.0568C92.8866 76.4303 92.8033 74.7378 92.8048 72.9765L92.8048 72.9765C92.8016 67.844 93.7011 62.5546 95.7387 57.4305C97.7902 52.2643 101.15 47.4168 105.738 43.4394C107.333 42.1111 109.004 40.9238 110.724 39.8681C114.855 37.3337 119.27 35.5591 123.636 34.4021C129.928 32.6936 135.957 31.9181 141.475 31.3464C144.558 31.003 147.494 30.7135 150.263 30.3651C151.505 30.2086 152.714 30.0405 153.889 29.8515C154.947 29.681 155.978 29.4935 156.979 29.2828C159.379 28.7565 161.649 28.1568 163.713 27.4262C165.776 26.6955 167.632 25.8335 169.221 24.7943C170.934 23.7894 172.611 22.3674 174.405 20.7665C176.198 19.1657 178.108 17.3864 180.24 15.6264C181.696 14.3014 183.334 13.0421 185.121 11.9163C187.043 10.7055 189.139 9.6491 191.371 8.81014C193.602 7.97111 195.969 7.34935 198.433 6.98679C201.166 6.69532 203.815 6.85525 206.283 7.36816C208.751 7.88103 211.039 8.74668 213.083 9.87418C215.404 11.166 217.329 12.7507 218.869 14.4756C220.409 16.2002 221.566 18.0647 222.378 19.9532C221.573 18.0607 220.422 16.1905 218.887 14.459C217.351 12.7274 215.43 11.1342 213.109 9.83261C211.062 8.6959 208.77 7.82061 206.296 7.29885C203.821 6.77703 201.163 6.60868 198.418 6.89345C198.418 6.89345 198.418 6.89344 198.418 6.89345C195.928 7.2534 193.535 7.87584 191.28 8.71801C189.025 9.56017 186.907 10.6221 184.966 11.8395C183.189 12.9539 181.562 14.1983 180.113 15.5073C177.966 17.2645 176.044 19.038 174.245 20.6272C172.446 22.2165 170.769 23.6215 169.067 24.6013C167.488 25.6202 165.643 26.4611 163.592 27.1721C161.541 27.8831 159.283 28.4642 156.898 28.9748C155.903 29.1788 154.878 29.3596 153.824 29.5234C152.748 29.6906 151.643 29.8401 150.508 29.9792C147.657 30.3287 144.621 30.6108 141.422 30.9517C135.892 31.4958 129.834 32.2475 123.484 33.9373C119.097 35.0746 114.652 36.8345 110.474 39.3596C108.695 40.4345 106.965 41.6481 105.309 43.0101C100.617 47.0388 97.1694 51.9478 95.0525 57.185C95.0525 57.185 95.0525 57.185 95.0525 57.185C92.947 62.386 91.9928 67.7504 91.9575 72.9521L91.9575 72.9521C91.9422 74.759 92.0136 76.4894 92.1258 78.145C92.4824 83.4005 93.2425 87.8971 92.9895 91.749C92.8634 93.5999 92.6346 95.3341 92.1678 96.8489C91.9914 97.4212 91.7811 97.9624 91.5298 98.4673C91.2236 99.0721 90.8833 99.6579 90.5117 100.199C89.7702 101.28 88.9038 102.182 87.9299 102.713C86.1919 104.051 82.8948 104.233 79.3 104.197C76.0697 104.059 72.818 103.443 69.5932 102.548C66.3684 101.653 63.1705 100.48 60.047 99.2018C57.4934 98.1406 54.984 96.9841 52.5005 95.8097C49.1749 94.2369 45.8948 92.6326 42.6373 91.1441C42.6373 91.1441 42.6373 91.1441 42.6373 91.1441C41.8256 90.7732 41.0151 90.4092 40.2056 90.0539C36.7411 88.5218 33.1755 87.1455 29.5663 86.2763C27.5866 85.795 25.5867 85.4892 23.6313 85.3814C21.6758 85.2737 19.765 85.3639 17.9488 85.6583C17.1599 85.7894 16.3961 85.9608 15.66 86.1664C12.6662 87.0006 10.122 88.3994 8.11549 90.0161C6.1088 91.6329 4.63774 93.4673 3.66133 95.272C3.21163 96.101 2.86431 96.9241 2.5994 97.7229L2.60149 97.7222ZM4.05077 100.308C3.99165 100.705 4.09466 101.248 4.33073 101.769C4.56679 102.289 4.93465 102.784 5.34885 103.13C5.76304 103.476 6.1325 103.617 6.37992 103.601C6.62733 103.586 6.75352 103.415 6.72126 103.087C6.64344 102.297 6.64715 101.433 6.77316 100.523C6.89914 99.6136 7.14748 98.6582 7.56341 97.7037C7.9844 96.7018 8.61093 95.6744 9.44997 94.6832C10.289 93.692 11.3408 92.7371 12.5909 91.9004C14.1872 90.8307 16.1156 89.946 18.2967 89.4695C19.7607 89.1372 21.3573 88.9916 23.0389 89.0212C24.7204 89.0509 26.487 89.2559 28.2771 89.6111C30.9375 90.1425 33.6556 91.0261 36.4032 92.0855C36.4032 92.0855 36.4032 92.0855 36.4032 92.0855C37.0684 92.3419 37.7356 92.6083 38.4044 92.8815C42.5822 94.5883 46.8445 96.5753 51.2346 98.5339C53.6409 99.6075 56.0862 100.671 58.5849 101.658C61.839 102.936 65.2003 104.102 68.6164 104.984C72.0325 105.867 75.5027 106.465 78.975 106.584C82.8832 106.648 86.6808 106.304 89.0774 104.655C89.7471 104.267 90.3644 103.779 90.9279 103.216C91.9434 102.201 92.7853 100.944 93.4439 99.6076C93.4789 99.5366 93.5133 99.4654 93.5473 99.394C94.5703 97.2207 94.9642 94.6446 95.0942 91.9195C95.2852 87.7718 94.4465 83.1704 94.031 77.9572C93.9041 76.3645 93.8174 74.7154 93.8132 73.007C93.7943 67.9615 94.6569 62.7701 96.638 57.7544C97.4135 55.7884 98.3807 53.8691 99.5362 52.0298C101.353 49.1372 103.637 46.4428 106.366 44.0707C111.641 39.6526 117.806 36.8237 123.893 35.1953C130.093 33.4999 136.073 32.7266 141.581 32.1475C144.407 31.8308 147.118 31.558 149.7 31.2415C151.191 31.0586 152.639 30.8614 154.042 30.6344C155.115 30.4606 156.162 30.2695 157.181 30.0548C159.619 29.5218 161.935 28.9068 164.05 28.1532C166.164 27.3995 168.077 26.5069 169.729 25.4299C171.5 24.3786 173.212 22.9288 175.02 21.317C176.828 19.7052 178.731 17.9316 180.839 16.1919C182.27 14.9019 183.865 13.6763 185.598 12.5809C187.484 11.3879 189.533 10.3496 191.706 9.53027C193.879 8.7108 196.177 8.11001 198.562 7.77024C198.562 7.77025 198.562 7.77024 198.562 7.77024C201.192 7.49315 203.743 7.65158 206.119 8.14941C208.496 8.64722 210.697 9.48433 212.659 10.572C214.874 11.8099 216.714 13.3283 218.187 14.9792C219.66 16.63 220.767 18.4134 221.545 20.2177C220.774 18.4095 219.673 16.6206 218.204 14.9628C216.735 13.3052 214.899 11.7785 212.684 10.5312C210.72 9.43418 208.515 8.58757 206.132 8.08072C203.749 7.57402 201.189 7.40731 198.547 7.67777C196.137 8.01467 193.815 8.61579 191.619 9.43788C189.422 10.2601 187.352 11.3033 185.447 12.5024C183.725 13.5868 182.137 14.7985 180.713 16.0735C178.591 17.8104 176.676 19.5781 174.862 21.1788C173.048 22.7793 171.337 24.2122 169.576 25.2387C167.935 26.2952 166.033 27.1671 163.931 27.9012C161.828 28.6354 159.526 29.232 157.101 29.7496C156.088 29.9577 155.047 30.1421 153.978 30.3092C152.675 30.5131 151.331 30.6913 149.948 30.856C147.281 31.174 144.468 31.4416 141.529 31.757C136.01 32.3089 130.001 33.0591 123.745 34.7368C119.301 35.9004 114.809 37.7018 110.624 40.2942C109.012 41.2927 107.446 42.4085 105.947 43.6495C101.381 47.5807 98.0273 52.3861 95.9681 57.5134C93.9207 62.6042 93.0043 67.8687 92.9849 72.9824L92.9849 72.9825C92.9756 74.7348 93.0507 76.4206 93.1663 78.042C93.5395 83.2772 94.3264 87.8339 94.0909 91.8379C93.9489 94.1712 93.6265 96.3587 92.8783 98.2194C92.7794 98.4652 92.6731 98.7053 92.5588 98.9395C92.0719 99.9241 91.4891 100.864 90.8181 101.677C90.1353 102.504 89.3611 103.199 88.5014 103.679C86.4294 105.162 82.8878 105.41 79.1437 105.35C75.7969 105.212 72.4431 104.596 69.1317 103.698C65.82 102.801 62.5506 101.623 59.3715 100.337C56.8446 99.3042 54.3672 98.1854 51.9222 97.0522C47.8221 95.1521 43.8112 93.216 39.8497 91.505L39.8497 91.505C39.7009 91.4408 39.5522 91.3768 39.4036 91.3132C35.9598 89.8325 32.4755 88.5232 29.0015 87.7383C27.1073 87.3089 25.2112 87.0434 23.3758 86.9659C21.5403 86.8885 19.7655 86.999 18.1 87.3067C16.6119 87.5803 15.222 88.0149 13.9497 88.5594C11.8099 89.4738 9.99636 90.7025 8.55431 92.0501C7.11234 93.3978 6.04123 94.8642 5.32233 96.3064C4.62874 97.6791 4.23818 99.0433 4.04995 100.308L4.05077 100.308ZM5.89987 102.393C5.90917 102.743 6.09695 103.199 6.4061 103.617C6.71525 104.035 7.14425 104.412 7.59478 104.657C8.04532 104.902 8.42194 104.978 8.659 104.939C8.89609 104.901 8.99453 104.749 8.91537 104.481C8.68313 103.695 8.5378 102.787 8.54749 101.798C8.55714 100.81 8.72204 99.7409 9.12192 98.6758C9.63748 97.2126 10.6802 95.6497 12.239 94.2655C13.818 92.8619 15.9359 91.6324 18.4373 91.0177C21.0749 90.3298 24.32 90.372 27.7443 90.9884C29.7289 91.3517 31.7698 91.9331 33.8545 92.6529C33.8545 92.6529 33.8545 92.6529 33.8545 92.6528C35.1026 93.0838 36.3671 93.5639 37.6457 94.0717C41.8678 95.7549 46.2006 97.7417 50.6912 99.7096C53.0589 100.747 55.4707 101.778 57.9401 102.74C61.2451 104.026 64.6735 105.198 68.1721 106.084C71.6706 106.97 75.2391 107.571 78.8237 107.692C82.8749 107.78 86.9084 107.375 89.6286 105.587C90.0439 105.345 90.4398 105.071 90.8162 104.77C92.0544 103.782 93.0829 102.502 93.8945 101.097C94.129 100.69 94.3454 100.274 94.5435 99.851C95.6283 97.5183 96.0456 94.8193 96.164 92.0054C96.3393 87.7077 95.4758 83.0488 95.0453 77.858C94.916 76.299 94.8264 74.6927 94.8172 73.0361C94.7838 68.0774 95.6104 62.9839 97.5358 58.0761C98.1354 56.5461 98.8528 55.045 99.6866 53.5895C101.55 50.3373 103.995 47.3143 106.994 44.7001C112.117 40.3809 118.16 37.6037 124.15 35.9857C130.256 34.3033 136.189 33.5325 141.687 32.9469C144.259 32.6568 146.745 32.402 149.132 32.1158C150.873 31.907 152.562 31.6815 154.194 31.416C155.283 31.2391 156.346 31.0444 157.383 30.8256C159.86 30.2861 162.221 29.656 164.387 28.8794C166.552 28.1028 168.522 27.1795 170.236 26.0652C172.066 24.9674 173.813 23.49 175.635 21.8671C177.457 20.2444 179.354 18.4764 181.437 16.7571C182.842 15.5027 184.395 14.3114 186.071 13.2472C187.924 12.0712 189.925 11.0507 192.041 10.2505C194.156 9.45027 196.385 8.87033 198.691 8.55343C201.218 8.2907 203.672 8.44756 205.956 8.93042C208.24 9.41316 210.355 10.2216 212.236 11.2697C214.344 12.4533 216.097 13.9046 217.503 15.4809C218.909 17.0572 219.967 18.7587 220.711 20.4781C219.974 18.7549 218.922 17.048 217.52 15.4647C216.119 13.8815 214.368 12.422 212.26 11.2291C210.377 10.1719 208.259 9.35394 205.969 8.86236C203.678 8.37077 201.215 8.20566 198.676 8.4618C196.346 8.77554 194.093 9.35554 191.956 10.1581C189.818 10.9606 187.796 11.9856 185.926 13.1672C184.258 14.2211 182.712 15.3993 181.313 16.6397C179.215 18.3562 177.307 20.1184 175.479 21.7299C173.651 23.3414 171.904 24.8022 170.085 25.8756C168.381 26.9698 166.422 27.8725 164.269 28.6298C162.115 29.3871 159.767 29.9991 157.304 30.5234C156.272 30.7355 155.215 30.9236 154.132 31.094C152.599 31.3352 151.014 31.5409 149.382 31.7309C146.906 32.019 144.32 32.2703 141.636 32.5602C136.126 33.1193 130.167 33.8668 124.003 35.5322C117.946 37.1338 111.817 39.9196 106.578 44.2827C103.761 46.7146 101.417 49.495 99.57 52.4847C98.5049 54.2089 97.6047 56.0025 96.8724 57.8379C94.8821 62.8201 94.003 67.9861 93.9997 73.0122C93.9962 74.7115 94.075 76.3537 94.1937 77.941C94.5838 83.1548 95.3969 87.7697 95.179 91.9259C95.0309 94.6576 94.6156 97.237 93.5745 99.4057C93.5361 99.4849 93.4971 99.5639 93.4574 99.6425C92.79 100.965 91.9429 102.206 90.9289 103.204C90.3598 103.765 89.7378 104.249 89.0647 104.631C86.663 106.257 82.8801 106.57 78.9892 106.486C75.5274 106.347 72.0736 105.729 68.6765 104.828C65.2798 103.928 61.9406 102.745 58.7081 101.452C56.209 100.446 53.7643 99.3626 51.358 98.2686C47.0038 96.2892 42.7733 94.2808 38.619 92.5453C38.1298 92.3408 37.6412 92.1399 37.1531 91.9438C37.1531 91.9438 37.1531 91.9438 37.1531 91.9438C34.2238 90.7664 31.3126 89.769 28.4496 89.1665C28.4496 89.1665 28.4496 89.1665 28.4496 89.1665C26.6376 88.7868 24.8419 88.5602 23.1233 88.5121C21.4047 88.464 19.7633 88.5943 18.2466 88.9144C16.2264 89.3278 14.4088 90.0767 12.8538 91.0002C11.3899 91.8686 10.1533 92.8965 9.16532 93.9795C8.17738 95.0624 7.43792 96.2004 6.93904 97.3147C6.12044 99.0916 5.85894 100.861 5.89973 102.393L5.89987 102.393ZM8.01772 103.982C8.07987 104.274 8.32866 104.637 8.68654 104.95C9.04446 105.262 9.50979 105.523 9.97767 105.671C10.4456 105.819 10.8196 105.838 11.0447 105.785C11.2697 105.731 11.3464 105.606 11.2345 105.404C10.8527 104.714 10.5455 103.848 10.4109 102.855C10.2762 101.862 10.3143 100.742 10.6478 99.6275C10.9174 98.6198 11.4894 97.5368 12.3609 96.497C13.0512 95.6728 13.9301 94.8744 14.9765 94.1832C16.0228 93.4921 17.2368 92.9084 18.575 92.5343C20.9259 91.8243 23.9487 91.8139 27.2213 92.3389C28.5941 92.5661 30.0075 92.9096 31.4569 93.341C31.4569 93.341 31.4569 93.341 31.4569 93.341C33.2194 93.8656 35.0362 94.5205 36.9003 95.2404C41.1642 96.8994 45.5674 98.8864 50.1588 100.865C52.4877 101.868 54.8656 102.867 57.3046 103.806C60.659 105.1 64.1532 106.278 67.7329 107.168C71.3126 108.059 74.9778 108.662 78.6738 108.786C82.8658 108.899 87.1328 108.433 90.1729 106.508C90.2703 106.451 90.3666 106.392 90.4618 106.332C91.9552 105.392 93.2011 104.112 94.1948 102.659C94.7067 101.911 95.1517 101.118 95.5287 100.303C96.6752 97.8127 97.1159 94.9922 97.2233 92.0902C97.3835 87.6429 96.4957 82.9276 96.0505 77.7606C95.9191 76.2351 95.8268 74.6709 95.8128 73.065C95.7656 68.1925 96.5573 63.1965 98.4282 58.396C98.8641 57.2764 99.364 56.1727 99.9274 55.0918C101.8 51.4995 104.376 48.1615 107.619 45.3264C112.591 41.1064 118.513 38.381 124.406 36.7736C130.42 35.1044 136.304 34.3363 141.793 33.7437C144.116 33.4803 146.375 33.2446 148.561 32.9873C150.553 32.7528 152.484 32.5003 154.347 32.1959C155.45 32.0158 156.529 31.8176 157.584 31.5949C160.1 31.0488 162.506 30.4036 164.723 29.6043C166.94 28.8049 168.967 27.8512 170.743 26.6994C172.631 25.5553 174.414 24.0502 176.25 22.4166C178.086 20.7828 179.977 19.0206 182.035 17.3216C183.412 16.1036 184.923 14.9472 186.542 13.9146C188.36 12.7552 190.316 11.752 192.373 10.9709C194.431 10.1897 196.591 9.63039 198.819 9.3366C201.243 9.08828 203.6 9.24364 205.792 9.71121C207.984 10.1789 210.012 10.9588 211.811 11.9672C213.812 13.0963 215.48 14.4801 216.818 15.9816C218.157 17.4831 219.166 19.1023 219.875 20.7366C219.173 19.0987 218.169 17.4741 216.835 15.9658C215.501 14.4575 213.837 13.0654 211.836 11.9269C210.035 10.9092 208.004 10.1197 205.805 9.64281C203.607 9.16605 201.241 9.00222 198.804 9.24372C196.08 9.59504 193.455 10.341 190.993 11.3985C188.531 12.4562 186.232 13.8258 184.161 15.3756C183.376 15.9624 182.625 16.5745 181.909 17.2029C179.836 18.8992 177.934 20.6557 176.092 22.2785C174.251 23.9013 172.469 25.39 170.592 26.5101C168.826 27.6422 166.81 28.5759 164.606 29.3564C162.401 30.137 160.008 30.7646 157.506 31.2959C156.456 31.5121 155.382 31.7039 154.284 31.8776C152.52 32.1568 150.695 32.3892 148.812 32.6038C146.535 32.8635 144.175 33.0973 141.742 33.3619C136.242 33.9279 130.331 34.6733 124.26 36.3254C118.301 37.9166 112.295 40.6506 107.208 44.9146C104.128 47.5805 101.63 50.6846 99.7467 54.028C98.9896 55.3716 98.3315 56.7539 97.7736 58.1612C95.8394 63.0348 94.9964 68.1024 95.0077 73.0413C95.0096 74.6886 95.0914 76.2878 95.2128 77.8412C95.6182 83.0319 96.4568 87.7049 96.2548 92.0121C96.1187 94.8331 95.6801 97.5362 94.5767 99.8657C94.3712 100.296 94.1466 100.72 93.9034 101.133C93.0837 102.523 92.0517 103.786 90.8176 104.758C90.4373 105.058 90.0377 105.33 89.6191 105.57C86.8916 107.337 82.8708 107.712 78.8353 107.604C75.2601 107.463 71.707 106.843 68.2269 105.939C64.7466 105.035 61.3393 103.847 58.055 102.546C55.5851 101.565 53.1736 100.516 50.8061 99.4593C46.351 97.4708 42.0493 95.4624 37.8496 93.7507C36.7458 93.302 35.6509 92.8735 34.5659 92.4791C34.5659 92.4791 34.5659 92.4791 34.5659 92.4791C32.3008 91.6556 30.077 90.9829 27.9087 90.5624C27.9087 90.5624 27.9087 90.5624 27.9087 90.5624C24.4435 89.8989 21.1285 89.82 18.3887 90.4837C15.995 91.0332 13.9261 92.1205 12.3114 93.3987C10.4281 94.8879 9.15518 96.6436 8.51649 98.298C8.10088 99.3211 7.89295 100.349 7.82965 101.314C7.76635 102.279 7.84756 103.18 8.01761 103.981L8.01772 103.982ZM10.2973 105.09C10.3977 105.319 10.6866 105.583 11.0727 105.79C11.4587 105.996 11.9401 106.143 12.4106 106.202C12.8812 106.26 13.2462 106.231 13.4591 106.17C13.672 106.109 13.7337 106.016 13.6015 105.884C13.0933 105.377 12.6302 104.633 12.3377 103.707C12.0452 102.78 11.9238 101.668 12.1449 100.561C12.2455 99.9247 12.4974 99.2393 12.9004 98.5461C13.4151 97.66 14.1787 96.7579 15.1628 95.9582C16.1468 95.1585 17.3517 94.4611 18.7102 94.023C20.778 93.2917 23.5827 93.2294 26.7078 93.6656L26.7078 93.6656C27.5311 93.7864 28.3747 93.9541 29.2376 94.162C29.2376 94.162 29.2376 94.162 29.2376 94.162C31.4279 94.6897 33.7431 95.4788 36.1684 96.3889C40.4721 98.0222 44.9455 100.009 49.6397 101.997C51.9303 102.967 54.2739 103.936 56.6815 104.852C56.8047 104.899 56.9281 104.946 57.0517 104.993C60.4034 106.262 63.9033 107.412 67.4998 108.282C71.0963 109.152 74.7891 109.74 78.5262 109.865C82.4981 109.993 86.6102 109.562 89.8548 107.901C90.1478 107.752 90.4336 107.592 90.7115 107.421C92.1163 106.591 93.3215 105.51 94.3257 104.277C95.2075 103.195 95.9344 101.997 96.5042 100.752C97.7121 98.1056 98.1765 95.1649 98.273 92.1762C98.4186 87.5796 97.5071 82.8085 97.0483 77.6669C96.9151 76.1747 96.8205 74.6519 96.802 73.0954C96.7415 68.3087 97.4987 63.4096 99.3153 58.7158C99.5991 57.9818 99.9108 57.2549 100.25 56.537C102.101 52.6259 104.779 48.9871 108.241 45.9519C113.063 41.8308 118.864 39.1576 124.661 37.5608C130.582 35.9054 136.419 35.14 141.898 34.5414C143.976 34.3045 146.009 34.0891 147.989 33.8595C150.23 33.5995 152.402 33.321 154.498 32.9772C155.616 32.7939 156.712 32.5922 157.784 32.3656C160.339 31.8131 162.791 31.1529 165.059 30.3309C167.327 29.5088 169.411 28.5246 171.25 27.3355C173.196 26.1451 175.014 24.6124 176.864 22.9678C178.715 21.3231 180.599 19.5667 182.633 17.8881C183.982 16.707 185.449 15.586 187.012 14.585C188.797 13.4419 190.706 12.4555 192.706 11.6932C194.707 10.9308 196.798 10.3922 198.947 10.1215L198.947 10.1215C201.269 9.88757 203.529 10.0414 205.629 10.4939C207.729 10.9466 209.669 11.6979 211.386 12.6663C213.28 13.7407 214.862 15.0568 216.132 16.4832C217.403 17.9096 218.363 19.4463 219.038 20.9953C218.37 19.4428 217.416 17.9008 216.149 16.4675C214.883 15.0344 213.304 13.7101 211.41 12.6264C209.692 11.6485 207.748 10.8877 205.641 10.4262C203.535 9.96459 201.266 9.80231 198.932 10.0295C196.253 10.3589 193.662 11.1024 191.222 12.1708C188.783 13.2389 186.496 14.6318 184.429 16.2056C183.766 16.7109 183.125 17.2345 182.508 17.7703C180.46 19.4462 178.564 21.197 176.708 22.8308C174.852 24.4646 173.035 25.9811 171.1 27.1477C169.271 28.3173 167.198 29.2816 164.943 30.0851C162.687 30.8886 160.248 31.5314 157.707 32.0692C156.64 32.2893 155.549 32.4847 154.437 32.6615C152.44 32.979 150.373 33.2369 148.24 33.4763C146.167 33.7089 144.033 33.9241 141.847 34.1633C136.358 34.736 130.494 35.479 124.517 37.1176C118.655 38.6983 112.77 41.3803 107.835 45.5451C104.518 48.4241 101.897 51.8378 100.012 55.5149C99.5132 56.488 99.0657 57.4793 98.67 58.4839C96.791 63.2496 95.9834 68.2191 96.0087 73.0716C96.0156 74.6682 96.1002 76.2251 96.2239 77.7449C96.644 82.9111 97.5073 87.6411 97.3207 92.099C97.1962 95.0084 96.7342 97.834 95.5691 100.322C95.1817 101.145 94.7249 101.946 94.2002 102.699C93.1994 104.135 91.9518 105.397 90.4653 106.322C90.3673 106.383 90.2681 106.442 90.1679 106.5C87.1182 108.405 82.8621 108.841 78.6847 108.708C74.9971 108.565 71.3466 107.943 67.7843 107.034C64.222 106.126 60.7481 104.932 57.4135 103.624C54.9739 102.667 52.5963 101.65 50.2673 100.629C45.7105 98.6302 41.3382 96.6215 37.0958 94.934C35.4013 94.2643 33.7423 93.6472 32.1228 93.132C32.1228 93.132 32.1228 93.132 32.1228 93.132C30.5011 92.6161 28.9181 92.2025 27.3794 91.9305C27.3794 91.9305 27.3794 91.9305 27.3794 91.9305C24.0681 91.3599 20.9781 91.3344 18.5283 92.0205C17.2191 92.3611 16.0194 92.8917 14.9659 93.5282C13.9125 94.1648 13.0053 94.9072 12.2639 95.687C11.1583 96.8487 10.4208 98.0953 10.06 99.2611C9.69014 100.356 9.59141 101.459 9.66212 102.457C9.73282 103.455 9.97264 104.349 10.2972 105.09L10.2973 105.09ZM12.6532 105.743C12.7787 105.903 13.0897 106.068 13.4868 106.17C13.8839 106.273 14.3653 106.312 14.8275 106.288C15.2899 106.265 15.6418 106.196 15.8439 106.134C16.0461 106.072 16.0989 106.018 15.9578 105.959C15.3586 105.709 14.7589 105.163 14.3064 104.369C13.854 103.574 13.5495 102.527 13.6165 101.479C13.6204 101.133 13.6829 100.762 13.8045 100.377C14.0811 99.5003 14.6674 98.5435 15.5287 97.6648C16.39 96.7862 17.5269 95.9859 18.843 95.4863C20.6314 94.7345 23.2217 94.6211 26.2027 94.9706L26.2027 94.9706C26.5364 95.0129 26.8747 95.0639 27.2172 95.123L27.2172 95.123C29.7339 95.5574 32.4864 96.4399 35.4475 97.5195C39.7888 99.1271 44.3312 101.114 49.1295 103.114C50.9996 103.894 52.9087 104.675 54.8625 105.429C55.2613 105.583 55.662 105.736 56.0647 105.887C59.5135 107.197 63.1346 108.388 66.8723 109.289C70.6102 110.191 74.4648 110.803 78.38 110.934C81.9801 111.067 85.7468 110.713 88.9966 109.425C89.7795 109.115 90.5323 108.75 91.2449 108.324C92.3765 107.652 93.385 106.841 94.2703 105.93C95.6274 104.535 96.6954 102.906 97.4711 101.196C98.74 98.3952 99.2283 95.3352 99.3148 92.2601C99.4462 87.5143 98.5115 82.6887 98.039 77.573C97.9043 76.1139 97.8076 74.632 97.785 73.1239C97.7116 68.4225 98.4348 63.6197 100.198 59.0323C100.341 58.6599 100.492 58.2894 100.649 57.9209C102.449 53.7139 105.204 49.7884 108.86 46.5737C113.533 42.5515 119.215 39.9302 124.916 38.3447C130.744 36.7031 136.533 35.9411 142.002 35.3365C143.84 35.126 145.647 34.9317 147.417 34.7287C149.905 34.4432 152.32 34.14 154.649 33.7565C155.782 33.5701 156.894 33.3649 157.985 33.1345C160.578 32.5758 163.075 31.9009 165.395 31.0559C167.714 30.2112 169.855 29.1966 171.756 27.9704C173.761 26.7337 175.613 25.1736 177.478 23.5181C179.343 21.8626 181.221 20.1121 183.23 18.4538C184.551 17.3102 185.974 16.225 187.48 15.2559C189.231 14.1285 191.095 13.1587 193.038 12.4149C194.982 11.671 197.005 11.1529 199.075 10.9057L199.075 10.9057C201.294 10.6862 203.456 10.8385 205.464 11.276C207.472 11.7136 209.325 12.4363 210.96 13.3651C212.747 14.3848 214.243 15.6331 215.446 16.9844C216.65 18.3356 217.561 19.7899 218.201 21.2536C217.567 19.7865 216.662 18.327 215.463 16.9693C214.264 15.6114 212.771 14.355 210.984 13.3263C209.348 12.3884 207.491 11.6561 205.477 11.2096C203.463 10.7631 201.292 10.6024 199.06 10.8153C196.432 11.1212 193.877 11.8614 191.463 12.939C189.049 14.0167 186.775 15.4319 184.711 17.0283C184.161 17.4534 183.626 17.8909 183.108 18.3372C181.084 19.9927 179.195 21.7375 177.324 23.3825C175.453 25.0272 173.602 26.5714 171.608 27.7845C169.717 28.9915 167.587 29.9864 165.28 30.8128C162.973 31.6391 160.488 32.297 157.908 32.8412C156.823 33.0653 155.716 33.2641 154.589 33.4442C152.359 33.8004 150.049 34.0827 147.668 34.3466C145.804 34.5532 143.897 34.7487 141.953 34.9626C136.473 35.5416 130.658 36.2816 124.773 37.9068C119.008 39.4769 113.244 42.1065 108.459 46.1722C104.931 49.2436 102.214 52.9529 100.357 56.9421C100.072 57.5567 99.8059 58.1778 99.5608 58.8042C97.7363 63.4625 96.9634 68.3349 97.0026 73.1016C97.0141 74.6486 97.1013 76.1639 97.2269 77.6501C97.6615 82.791 98.5485 87.5766 98.3769 92.185C98.2632 95.1819 97.7777 98.1287 96.5507 100.774C95.9675 102.028 95.2248 103.233 94.3263 104.318C93.3166 105.537 92.11 106.603 90.71 107.42C90.4339 107.587 90.1502 107.744 89.8598 107.891C86.6057 109.536 82.4987 109.944 78.5349 109.798C74.7362 109.653 70.9893 109.027 67.3465 108.114C63.7035 107.201 60.1645 106.001 56.7809 104.685C54.3726 103.753 52.0295 102.767 49.7393 101.779C45.0795 99.7689 40.6373 97.7596 36.3542 96.0969C34.0938 95.2282 31.9223 94.4624 29.8497 93.9148C29.8497 93.9148 29.8497 93.9148 29.8497 93.9148C28.8285 93.645 27.8312 93.4277 26.8591 93.2736C23.6974 92.7932 20.8283 92.82 18.6644 93.5277C17.3124 93.9315 16.0986 94.5768 15.0824 95.3299C14.0663 96.083 13.2476 96.9439 12.6539 97.8092C12.0951 98.6227 11.734 99.4424 11.5726 100.205C11.2964 101.313 11.3435 102.43 11.567 103.39C11.7906 104.349 12.1902 105.153 12.6524 105.744L12.6532 105.743ZM15.0196 105.975C15.1584 106.064 15.4765 106.128 15.8709 106.131C16.2653 106.133 16.7345 106.071 17.181 105.976C17.6276 105.88 17.9649 105.78 18.1584 105.724C18.3519 105.668 18.402 105.656 18.2614 105.671C17.613 105.74 16.9056 105.46 16.2998 104.858C15.9969 104.557 15.7213 104.179 15.504 103.753C15.2868 103.327 15.128 102.854 15.0656 102.383C15.0395 102.25 15.0253 102.111 15.0233 101.966C15.012 101.177 15.3691 100.221 16.0553 99.2977C16.7415 98.3749 17.7577 97.4853 18.9738 96.9272C20.4339 96.1821 22.7015 96.0027 25.4137 96.2303C25.4137 96.2303 25.4137 96.2303 25.4137 96.2303C25.5103 96.2384 25.6075 96.247 25.7051 96.2561C28.3653 96.5358 31.389 97.4482 34.7367 98.634C39.1137 100.215 43.7252 102.203 48.6283 104.216C49.966 104.766 51.3255 105.316 52.7088 105.859C53.6138 106.214 54.529 106.565 55.4551 106.91C58.9495 108.228 62.6325 109.426 66.4481 110.333C70.2636 111.241 74.2113 111.857 78.2355 111.992C81.4458 112.125 84.8247 111.852 87.9283 110.889C89.2745 110.471 90.5687 109.923 91.7734 109.219C92.5797 108.739 93.3265 108.197 94.0139 107.605C95.9631 105.926 97.4358 103.845 98.43 101.637C99.7598 98.6829 100.272 95.5048 100.349 92.3437C100.466 87.4491 99.509 82.5693 99.0236 77.4817C98.8875 76.0555 98.7889 74.6137 98.7624 73.1529C98.6767 68.5365 99.3667 63.8296 101.077 59.3479C101.09 59.3135 101.104 59.2791 101.117 59.2448C102.844 54.766 105.651 50.5685 109.478 47.1933C114.003 43.2699 119.564 40.7011 125.17 39.1267C130.906 37.4992 136.648 36.7406 142.108 36.1302C143.71 35.946 145.291 35.7735 146.848 35.5963C149.58 35.2852 152.237 34.9586 154.801 34.5349C155.948 34.3455 157.077 34.1368 158.186 33.9024C160.818 33.3376 163.361 32.6478 165.731 31.7805C168.102 30.9132 170.3 29.8684 172.263 28.6048C174.327 27.3219 176.214 25.7342 178.094 24.0678C179.974 22.4015 181.845 20.6568 183.83 19.0188C185.12 17.913 186.499 16.8641 187.948 15.9272C189.668 14.8152 191.486 13.8616 193.373 13.1361C195.259 12.4106 197.213 11.9132 199.205 11.6895C201.321 11.4844 203.386 11.6352 205.302 12.0576C207.217 12.4802 208.984 13.1742 210.537 14.0633C212.217 15.0282 213.627 16.2089 214.762 17.4851C215.898 18.7614 216.76 20.1335 217.367 21.512C216.766 20.1299 215.91 18.7527 214.779 17.4698C213.647 16.187 212.24 14.9984 210.56 14.0244C209.006 13.1264 207.236 12.4229 205.314 11.9915C203.392 11.5601 201.318 11.401 199.19 11.5996C196.616 11.8805 194.103 12.6164 191.716 13.7024C189.329 14.7886 187.069 16.2253 185.005 17.8429C184.563 18.1889 184.131 18.5429 183.708 18.9029C181.708 20.5378 179.826 22.2769 177.941 23.9326C176.056 25.5882 174.169 27.1603 172.116 28.4197C170.162 29.6641 167.975 30.6896 165.617 31.5385C163.259 32.3876 160.73 33.0604 158.111 33.6109C157.007 33.8389 155.884 34.0412 154.741 34.2244C152.277 34.6198 149.725 34.9252 147.099 35.2136C145.447 35.3951 143.765 35.5701 142.06 35.7586C136.59 36.3437 130.822 37.0806 125.03 38.6921C119.36 40.2511 113.718 42.8283 109.082 46.7952C105.366 50.0389 102.578 54.0298 100.778 58.3078C100.664 58.5778 100.554 58.849 100.449 59.1211C98.678 63.6726 97.9395 68.4483 97.9912 73.1289C98.0071 74.6275 98.0965 76.1018 98.2238 77.5548C98.6719 82.6683 99.5824 87.509 99.4251 92.2677C99.3219 95.3514 98.8126 98.418 97.5245 101.219C96.7323 102.94 95.6444 104.575 94.2669 105.97C93.3804 106.868 92.3738 107.667 91.248 108.327C90.5357 108.748 89.7845 109.108 89.0041 109.413C85.7471 110.687 81.9829 111.021 78.3888 110.872C74.4801 110.723 70.6384 110.092 66.9165 109.174C63.1944 108.255 59.5921 107.049 56.1615 105.724C55.8444 105.603 55.5286 105.481 55.2139 105.358C53.1705 104.56 51.1768 103.731 49.2253 102.903C44.4611 100.882 39.9484 98.8735 35.6268 97.2368C32.8251 96.1908 30.2003 95.3179 27.7716 94.833L27.7716 94.833C27.2897 94.7367 26.8155 94.6556 26.3491 94.5908C23.3335 94.1983 20.6812 94.2768 18.7996 95.0052C17.4693 95.4698 16.3027 96.2205 15.3875 97.0628C14.4723 97.9051 13.8079 98.839 13.4293 99.722C13.2193 100.211 13.0962 100.687 13.06 101.13C12.9207 102.196 13.1409 103.27 13.5236 104.124C13.9063 104.977 14.4511 105.612 15.0197 105.974L15.0196 105.975Z" fill="#0044CB"/>
</svg>
