<svg width="20" height="21" viewBox="0 0 20 21" fill="none" xmlns="http://www.w3.org/2000/svg">
<path d="M1 1.05103H3L3.4 3.05103M3.4 3.05103H19L15 11.051H5M3.4 3.05103L5 11.051M5 11.051L2.707 13.344C2.077 13.974 2.523 15.051 3.414 15.051H15M15 15.051C14.4696 15.051 13.9609 15.2617 13.5858 15.6368C13.2107 16.0119 13 16.5206 13 17.051C13 17.5815 13.2107 18.0902 13.5858 18.4652C13.9609 18.8403 14.4696 19.051 15 19.051C15.5304 19.051 16.0391 18.8403 16.4142 18.4652C16.7893 18.0902 17 17.5815 17 17.051C17 16.5206 16.7893 16.0119 16.4142 15.6368C16.0391 15.2617 15.5304 15.051 15 15.051ZM7 17.051C7 17.5815 6.78929 18.0902 6.41421 18.4652C6.03914 18.8403 5.53043 19.051 5 19.051C4.46957 19.051 3.96086 18.8403 3.58579 18.4652C3.21071 18.0902 3 17.5815 3 17.051C3 16.5206 3.21071 16.0119 3.58579 15.6368C3.96086 15.2617 4.46957 15.051 5 15.051C5.53043 15.051 6.03914 15.2617 6.41421 15.6368C6.78929 16.0119 7 16.5206 7 17.051Z" stroke="#EFF5FF" stroke-width="2" stroke-linecap="round" stroke-linejoin="round"/>
</svg>
