<svg width="18" height="18" viewBox="0 0 18 18" fill="none" xmlns="http://www.w3.org/2000/svg">
<path d="M15.9998 17.0662C15.7798 17.0662 15.5598 16.9961 15.3898 16.856L15.2998 16.7759L12.0598 13.5335C10.7598 14.5342 9.15977 15.0746 7.50977 15.0746C3.36977 15.0746 0.00976562 11.712 0.00976562 7.56877C0.00976562 3.42558 3.36977 0.0629883 7.50977 0.0629883C11.6498 0.0629883 15.0098 3.42558 15.0098 7.56877C15.0198 9.21004 14.4798 10.8113 13.4698 12.1223L16.7098 15.3648C17.0998 15.7551 17.0998 16.3856 16.7098 16.7759C16.5198 16.9661 16.2598 17.0662 15.9998 17.0662ZM7.49977 2.05464C4.45977 2.05464 1.99977 4.51652 1.98977 7.54886C1.98977 10.5912 4.44977 13.0531 7.47977 13.0631C8.77977 13.0631 10.0398 12.6027 11.0398 11.7621C11.1398 11.4418 11.3798 11.2016 11.6998 11.1015C13.6598 8.77973 13.3598 5.30706 11.0298 3.34555C10.0498 2.51491 8.78977 2.05464 7.49977 2.05464Z" fill="#7E84A3"/>
</svg>
